<svg width="88" height="88" viewBox="0 0 88 88" fill="none" xmlns="http://www.w3.org/2000/svg">
<g id="Buttons/Square-Medium/Levels/Default">
<g id="Button/Square-Medium/Fill" filter="url(#filter0_d_2_954)">
<rect id="Background" x="6" y="2" width="76" height="76" rx="6" fill="#2A2E37" stroke="#E52554" stroke-width="4"/>
</g>
<g id="Icon/Levels">
<g id="Rectangle" filter="url(#filter1_d_2_954)">
<path d="M38.4866 20H25.2277C24.5497 20 24 20.5596 24 21.25V28.7499C24 29.4402 24.5497 29.9998 25.2277 29.9998H38.4866C39.1646 29.9998 39.7143 29.4402 39.7143 28.7499V21.25C39.7143 20.5596 39.1646 20 38.4866 20Z" fill="#E52554"/>
</g>
<g id="Rectangle_2" filter="url(#filter2_d_2_954)">
<path d="M38.4866 34.9998H25.2277C24.5497 34.9998 24 35.5594 24 36.2497V43.7496C24 44.44 24.5497 44.9996 25.2277 44.9996H38.4866C39.1646 44.9996 39.7143 44.44 39.7143 43.7496V36.2497C39.7143 35.5594 39.1646 34.9998 38.4866 34.9998Z" fill="#E52554"/>
</g>
<g id="Rectangle_3" filter="url(#filter3_d_2_954)">
<path d="M38.4866 49.9995H25.2277C24.5497 49.9995 24 50.5591 24 51.2495V58.7494C24 59.4397 24.5497 59.9993 25.2277 59.9993H38.4866C39.1646 59.9993 39.7143 59.4397 39.7143 58.7494V51.2495C39.7143 50.5591 39.1646 49.9995 38.4866 49.9995Z" fill="#E52554"/>
</g>
<g id="Rectangle_4" filter="url(#filter4_d_2_954)">
<path d="M62.7723 20H49.5133C48.8353 20 48.2856 20.5596 48.2856 21.25V28.7499C48.2856 29.4402 48.8353 29.9998 49.5133 29.9998H62.7723C63.4503 29.9998 63.9999 29.4402 63.9999 28.7499V21.25C63.9999 20.5596 63.4503 20 62.7723 20Z" fill="#E52554"/>
</g>
<g id="Rectangle_5" filter="url(#filter5_d_2_954)">
<path d="M62.7723 34.9998H49.5133C48.8353 34.9998 48.2856 35.5594 48.2856 36.2497V43.7496C48.2856 44.44 48.8353 44.9996 49.5133 44.9996H62.7723C63.4503 44.9996 63.9999 44.44 63.9999 43.7496V36.2497C63.9999 35.5594 63.4503 34.9998 62.7723 34.9998Z" fill="#E52554"/>
</g>
<g id="Rectangle_6" filter="url(#filter6_d_2_954)">
<path d="M62.7723 49.9995H49.5133C48.8353 49.9995 48.2856 50.5591 48.2856 51.2495V58.7494C48.2856 59.4397 48.8353 59.9993 49.5133 59.9993H62.7723C63.4503 59.9993 63.9999 59.4397 63.9999 58.7494V51.2495C63.9999 50.5591 63.4503 49.9995 62.7723 49.9995Z" fill="#E52554"/>
</g>
</g>
</g>
<defs>
<filter id="filter0_d_2_954" x="0" y="0" width="88" height="88" filterUnits="userSpaceOnUse" color-interpolation-filters="sRGB">
<feFlood flood-opacity="0" result="BackgroundImageFix"/>
<feColorMatrix in="SourceAlpha" type="matrix" values="0 0 0 0 0 0 0 0 0 0 0 0 0 0 0 0 0 0 127 0" result="hardAlpha"/>
<feOffset dy="4"/>
<feGaussianBlur stdDeviation="2"/>
<feComposite in2="hardAlpha" operator="out"/>
<feColorMatrix type="matrix" values="0 0 0 0 0 0 0 0 0 0 0 0 0 0 0 0 0 0 0.2 0"/>
<feBlend mode="normal" in2="BackgroundImageFix" result="effect1_dropShadow_2_954"/>
<feBlend mode="normal" in="SourceGraphic" in2="effect1_dropShadow_2_954" result="shape"/>
</filter>
<filter id="filter1_d_2_954" x="20" y="20" width="23.7144" height="17.9998" filterUnits="userSpaceOnUse" color-interpolation-filters="sRGB">
<feFlood flood-opacity="0" result="BackgroundImageFix"/>
<feColorMatrix in="SourceAlpha" type="matrix" values="0 0 0 0 0 0 0 0 0 0 0 0 0 0 0 0 0 0 127 0" result="hardAlpha"/>
<feOffset dy="4"/>
<feGaussianBlur stdDeviation="2"/>
<feComposite in2="hardAlpha" operator="out"/>
<feColorMatrix type="matrix" values="0 0 0 0 0 0 0 0 0 0 0 0 0 0 0 0 0 0 0.2 0"/>
<feBlend mode="normal" in2="BackgroundImageFix" result="effect1_dropShadow_2_954"/>
<feBlend mode="normal" in="SourceGraphic" in2="effect1_dropShadow_2_954" result="shape"/>
</filter>
<filter id="filter2_d_2_954" x="20" y="34.9998" width="23.7144" height="17.9998" filterUnits="userSpaceOnUse" color-interpolation-filters="sRGB">
<feFlood flood-opacity="0" result="BackgroundImageFix"/>
<feColorMatrix in="SourceAlpha" type="matrix" values="0 0 0 0 0 0 0 0 0 0 0 0 0 0 0 0 0 0 127 0" result="hardAlpha"/>
<feOffset dy="4"/>
<feGaussianBlur stdDeviation="2"/>
<feComposite in2="hardAlpha" operator="out"/>
<feColorMatrix type="matrix" values="0 0 0 0 0 0 0 0 0 0 0 0 0 0 0 0 0 0 0.2 0"/>
<feBlend mode="normal" in2="BackgroundImageFix" result="effect1_dropShadow_2_954"/>
<feBlend mode="normal" in="SourceGraphic" in2="effect1_dropShadow_2_954" result="shape"/>
</filter>
<filter id="filter3_d_2_954" x="20" y="49.9995" width="23.7144" height="17.9998" filterUnits="userSpaceOnUse" color-interpolation-filters="sRGB">
<feFlood flood-opacity="0" result="BackgroundImageFix"/>
<feColorMatrix in="SourceAlpha" type="matrix" values="0 0 0 0 0 0 0 0 0 0 0 0 0 0 0 0 0 0 127 0" result="hardAlpha"/>
<feOffset dy="4"/>
<feGaussianBlur stdDeviation="2"/>
<feComposite in2="hardAlpha" operator="out"/>
<feColorMatrix type="matrix" values="0 0 0 0 0 0 0 0 0 0 0 0 0 0 0 0 0 0 0.2 0"/>
<feBlend mode="normal" in2="BackgroundImageFix" result="effect1_dropShadow_2_954"/>
<feBlend mode="normal" in="SourceGraphic" in2="effect1_dropShadow_2_954" result="shape"/>
</filter>
<filter id="filter4_d_2_954" x="44.2856" y="20" width="23.7144" height="17.9998" filterUnits="userSpaceOnUse" color-interpolation-filters="sRGB">
<feFlood flood-opacity="0" result="BackgroundImageFix"/>
<feColorMatrix in="SourceAlpha" type="matrix" values="0 0 0 0 0 0 0 0 0 0 0 0 0 0 0 0 0 0 127 0" result="hardAlpha"/>
<feOffset dy="4"/>
<feGaussianBlur stdDeviation="2"/>
<feComposite in2="hardAlpha" operator="out"/>
<feColorMatrix type="matrix" values="0 0 0 0 0 0 0 0 0 0 0 0 0 0 0 0 0 0 0.2 0"/>
<feBlend mode="normal" in2="BackgroundImageFix" result="effect1_dropShadow_2_954"/>
<feBlend mode="normal" in="SourceGraphic" in2="effect1_dropShadow_2_954" result="shape"/>
</filter>
<filter id="filter5_d_2_954" x="44.2856" y="34.9998" width="23.7144" height="17.9998" filterUnits="userSpaceOnUse" color-interpolation-filters="sRGB">
<feFlood flood-opacity="0" result="BackgroundImageFix"/>
<feColorMatrix in="SourceAlpha" type="matrix" values="0 0 0 0 0 0 0 0 0 0 0 0 0 0 0 0 0 0 127 0" result="hardAlpha"/>
<feOffset dy="4"/>
<feGaussianBlur stdDeviation="2"/>
<feComposite in2="hardAlpha" operator="out"/>
<feColorMatrix type="matrix" values="0 0 0 0 0 0 0 0 0 0 0 0 0 0 0 0 0 0 0.2 0"/>
<feBlend mode="normal" in2="BackgroundImageFix" result="effect1_dropShadow_2_954"/>
<feBlend mode="normal" in="SourceGraphic" in2="effect1_dropShadow_2_954" result="shape"/>
</filter>
<filter id="filter6_d_2_954" x="44.2856" y="49.9995" width="23.7144" height="17.9998" filterUnits="userSpaceOnUse" color-interpolation-filters="sRGB">
<feFlood flood-opacity="0" result="BackgroundImageFix"/>
<feColorMatrix in="SourceAlpha" type="matrix" values="0 0 0 0 0 0 0 0 0 0 0 0 0 0 0 0 0 0 127 0" result="hardAlpha"/>
<feOffset dy="4"/>
<feGaussianBlur stdDeviation="2"/>
<feComposite in2="hardAlpha" operator="out"/>
<feColorMatrix type="matrix" values="0 0 0 0 0 0 0 0 0 0 0 0 0 0 0 0 0 0 0.2 0"/>
<feBlend mode="normal" in2="BackgroundImageFix" result="effect1_dropShadow_2_954"/>
<feBlend mode="normal" in="SourceGraphic" in2="effect1_dropShadow_2_954" result="shape"/>
</filter>
</defs>
</svg>
