<svg width="70" height="57" viewBox="0 0 70 57" fill="none" xmlns="http://www.w3.org/2000/svg">
<path d="M29.5808 1.0624L17.4394 11.3795L12.4773 15.6072H3.676C2.70185 15.6097 1.76831 16.0018 1.07948 16.6977C0.390639 17.3936 0.00253358 18.3368 0 19.3209L0 36.668C-3.30884e-06 37.6538 0.386982 38.5994 1.07609 39.2974C1.7652 39.9954 2.70019 40.3889 3.676 40.3914H12.4773L17.4394 44.59L29.5808 54.9265C30.2384 55.4868 31.0409 55.8454 31.8936 55.9601C32.7462 56.0748 33.6136 55.9408 34.3934 55.5739C35.1732 55.207 35.8329 54.6225 36.2948 53.8893C36.7566 53.1561 37.0013 52.3048 37 51.4358V4.55314C36.9974 3.68577 36.7503 2.83709 36.2878 2.10638C35.8252 1.37567 35.1662 0.793152 34.3879 0.426966C33.6096 0.0607797 32.7442 -0.0739284 31.8929 0.0386007C31.0416 0.15113 30.2396 0.506242 29.5808 1.0624Z" fill="black"/>
<path d="M43.18 15.18C41.6067 16.7534 41.6067 19.3044 43.18 20.8778L50.3021 28L43.18 35.1222C41.6067 36.6956 41.6067 39.2465 43.18 40.8199C44.7533 42.3933 47.3043 42.3933 48.8779 40.8199L56 33.6977L63.1222 40.82C64.6955 42.3933 67.2465 42.3933 68.8198 40.82C70.3934 39.2465 70.3934 36.6956 68.8198 35.1222L61.6977 28L68.8198 20.8778C70.3934 19.3044 70.3934 16.7534 68.8198 15.18C67.2465 13.6067 64.6955 13.6067 63.1222 15.18L56 22.3022L48.8779 15.18C47.3043 13.6067 44.7535 13.6067 43.18 15.18Z" fill="black"/>
</svg>
