<svg width="60" height="57" viewBox="0 0 60 57" fill="none" xmlns="http://www.w3.org/2000/svg">
<path d="M29.5866 1.07327L17.4546 11.3786L12.4676 15.6152H3.70192C3.21714 15.6113 2.7364 15.7045 2.28743 15.8894C1.83846 16.0743 1.43013 16.3472 1.08599 16.6923C0.741858 17.0375 0.468721 17.4481 0.282331 17.9005C0.095942 18.3529 -1.48706e-05 18.8381 1.72853e-09 19.3282V36.6427C0.00253162 37.6267 0.390334 38.5696 1.07863 39.2654C1.76693 39.9612 2.69975 40.3532 3.67315 40.3558H12.4676L17.4451 44.5826L29.5866 54.9267C30.2437 55.4869 31.0455 55.8454 31.8975 55.9601C32.7496 56.0748 33.6163 55.9409 34.3955 55.574C35.1747 55.2072 35.8339 54.6228 36.2953 53.8898C36.7568 53.1567 37.0013 52.3056 37 51.4367V4.56333C37.0013 3.69444 36.7568 2.84329 36.2953 2.11024C35.8339 1.37719 35.1747 0.792801 34.3955 0.425975C33.6163 0.0591487 32.7496 -0.0748184 31.8975 0.039869C31.0455 0.154556 30.2437 0.513116 29.5866 1.07327Z" fill="black"/>
<path d="M54.9311 15.0682C54.2808 14.3842 53.3997 14 52.4812 14C51.5626 14 50.6816 14.3842 50.0313 15.0682C49.7048 15.4047 49.4454 15.8065 49.2683 16.2501C49.0912 16.6938 49 17.1702 49 17.6516C49 18.1329 49.0912 18.6094 49.2683 19.0531C49.4454 19.4967 49.7048 19.8985 50.0313 20.2349C51.9801 22.2999 53.0742 25.0946 53.0742 28.0079C53.0742 30.9211 51.9801 33.7159 50.0313 35.7808C49.7048 36.1172 49.4454 36.5191 49.2683 36.9627C49.0912 37.4064 49 37.8828 49 38.3642C49 38.8455 49.0912 39.322 49.2683 39.7656C49.4454 40.2093 49.7048 40.6111 50.0313 40.9475C50.3461 41.2889 50.7241 41.5584 51.1418 41.7393C51.5595 41.9202 52.008 42.0087 52.4595 41.9992C52.9176 42.0095 53.3728 41.9217 53.7977 41.7409C54.2225 41.5601 54.6081 41.2902 54.9311 40.9475C58.1773 37.5111 60 32.8583 60 28.0079C60 23.1575 58.1773 18.5046 54.9311 15.0682Z" fill="black"/>
</svg>
