<svg width="1164" height="157" viewBox="0 0 1164 157" fill="none" xmlns="http://www.w3.org/2000/svg">
<g id="Icon_Preview">
<g id="Icon/Play">
<path id="Play" d="M96.464 71.8414C101.179 74.5926 101.179 81.4074 96.464 84.1586L60.7184 105.018C55.967 107.791 50 104.362 50 98.8594L50 57.1406C50 51.6378 55.967 48.2093 60.7184 50.982L96.464 71.8414Z" fill="black"/>
</g>
<g id="Icon/Star">
<path id="StarIcon" d="M175.037 52.9015C176.284 49.0328 181.716 49.0328 182.963 52.9015L186.952 65.2734C187.51 67.0036 189.11 68.175 190.916 68.175H203.825C207.862 68.175 209.54 73.3803 206.274 75.7713L195.83 83.4175C194.37 84.4868 193.759 86.3822 194.317 88.1123L198.306 100.484C199.553 104.353 195.159 107.57 191.893 105.179L181.449 97.5327C179.989 96.4634 178.011 96.4635 176.551 97.5327L166.107 105.179C162.841 107.57 158.447 104.353 159.694 100.484L163.683 88.1123C164.241 86.3822 163.63 84.4868 162.17 83.4175L151.726 75.7713C148.46 73.3803 150.138 68.175 154.175 68.175H167.084C168.89 68.175 170.49 67.0036 171.048 65.2734L175.037 52.9015Z" fill="black"/>
</g>
<g id="Icon/Pause">
<rect id="Rectangle" x="258" y="50" width="16" height="56" rx="2" fill="black"/>
<rect id="Rectangle_2" x="282" y="50" width="16" height="56" rx="2" fill="black"/>
</g>
<g id="Icon/SoundOn">
<path id="Vector" d="M377.587 51.0733L365.455 61.3786L360.468 65.6152H351.702C351.217 65.6113 350.736 65.7045 350.287 65.8894C349.838 66.0743 349.43 66.3472 349.086 66.6923C348.742 67.0375 348.469 67.4481 348.282 67.9005C348.096 68.3529 348 68.8381 348 69.3282V86.6427C348.003 87.6267 348.39 88.5696 349.079 89.2654C349.767 89.9612 350.7 90.3532 351.673 90.3558H360.468L365.445 94.5826L377.587 104.927C378.244 105.487 379.045 105.845 379.898 105.96C380.75 106.075 381.616 105.941 382.395 105.574C383.175 105.207 383.834 104.623 384.295 103.89C384.757 103.157 385.001 102.306 385 101.437V54.5633C385.001 53.6944 384.757 52.8433 384.295 52.1102C383.834 51.3772 383.175 50.7928 382.395 50.426C381.616 50.0591 380.75 49.9252 379.898 50.0399C379.045 50.1546 378.244 50.5131 377.587 51.0733Z" fill="black"/>
<path id="Vector_2" d="M402.931 65.0682C402.281 64.3842 401.4 64 400.481 64C399.563 64 398.682 64.3842 398.031 65.0682C397.705 65.4047 397.445 65.8065 397.268 66.2501C397.091 66.6938 397 67.1702 397 67.6516C397 68.1329 397.091 68.6094 397.268 69.0531C397.445 69.4967 397.705 69.8985 398.031 70.2349C399.98 72.2999 401.074 75.0946 401.074 78.0079C401.074 80.9211 399.98 83.7159 398.031 85.7808C397.705 86.1172 397.445 86.5191 397.268 86.9627C397.091 87.4064 397 87.8828 397 88.3642C397 88.8455 397.091 89.322 397.268 89.7656C397.445 90.2093 397.705 90.6111 398.031 90.9475C398.346 91.2889 398.724 91.5584 399.142 91.7393C399.56 91.9202 400.008 92.0087 400.46 91.9992C400.918 92.0095 401.373 91.9217 401.798 91.7409C402.223 91.5601 402.608 91.2902 402.931 90.9475C406.177 87.5111 408 82.8583 408 78.0079C408 73.1575 406.177 68.5046 402.931 65.0682Z" fill="black"/>
</g>
<g id="Icon/SoundOff">
<path id="Vector_3" d="M487.581 51.0624L475.439 61.3795L470.477 65.6072H461.676C460.702 65.6097 459.768 66.0018 459.079 66.6977C458.391 67.3936 458.003 68.3368 458 69.3209V86.668C458 87.6538 458.387 88.5994 459.076 89.2974C459.765 89.9954 460.7 90.3889 461.676 90.3914H470.477L475.439 94.59L487.581 104.927C488.238 105.487 489.041 105.845 489.894 105.96C490.746 106.075 491.614 105.941 492.393 105.574C493.173 105.207 493.833 104.623 494.295 103.889C494.757 103.156 495.001 102.305 495 101.436V54.5531C494.997 53.6858 494.75 52.8371 494.288 52.1064C493.825 51.3757 493.166 50.7932 492.388 50.427C491.61 50.0608 490.744 49.9261 489.893 50.0386C489.042 50.1511 488.24 50.5062 487.581 51.0624Z" fill="black"/>
<path id="Union" d="M501.18 65.18C499.607 66.7534 499.607 69.3044 501.18 70.8778L508.302 78L501.18 85.1222C499.607 86.6956 499.607 89.2465 501.18 90.8199C502.753 92.3933 505.304 92.3933 506.878 90.8199L514 83.6977L521.122 90.82C522.696 92.3933 525.247 92.3933 526.82 90.82C528.393 89.2465 528.393 86.6956 526.82 85.1222L519.698 78L526.82 70.8778C528.393 69.3044 528.393 66.7534 526.82 65.18C525.247 63.6067 522.696 63.6067 521.122 65.18L514 72.3022L506.878 65.18C505.304 63.6067 502.754 63.6067 501.18 65.18Z" fill="black"/>
</g>
<g id="Icon/Locker">
<path id="Locker" fill-rule="evenodd" clip-rule="evenodd" d="M607.138 68.6667H590.861V63.3333C590.861 58.8 594.538 55.0667 599 55.0667C603.461 55.0667 607.138 58.8 607.138 63.3333V68.6667ZM599 92.6667C596.111 92.6667 593.75 90.2667 593.75 87.3333C593.75 84.4 596.111 82 599 82C601.887 82 604.25 84.4 604.25 87.3333C604.25 90.2667 601.887 92.6667 599 92.6667ZM614.75 68.6667H612.125V63.3333C612.125 55.8667 606.35 50 599 50C591.648 50 585.875 55.8667 585.875 63.3333V68.6667H583.25C580.361 68.6667 578 71.0667 578 74V100.667C578 103.6 580.361 106 583.25 106H614.75C617.637 106 620 103.6 620 100.667V74C620 71.0667 617.637 68.6667 614.75 68.6667Z" fill="black"/>
</g>
<g id="Icon/Home">
<path id="Vector_4" d="M725.059 76.0476L701.722 52.4219L700.269 50.9517C699.971 50.65 699.617 50.4107 699.228 50.2474C698.839 50.0841 698.421 50 698 50C697.579 50 697.161 50.0841 696.772 50.2474C696.383 50.4107 696.029 50.65 695.731 50.9517L694.278 52.4219L670.941 76.0476C670.642 76.3489 670.406 76.7068 670.244 77.1007C670.083 77.4946 670 77.9169 670 78.3433C670 78.7697 670.083 79.1919 670.244 79.5859C670.406 79.9798 670.642 80.3376 670.941 80.639L672.382 82.1092C672.679 82.4109 673.033 82.6502 673.422 82.8135C673.812 82.9768 674.229 83.0609 674.651 83.0609C675.072 83.0609 675.489 82.9768 675.879 82.8135C676.268 82.6502 676.622 82.4109 676.919 82.1092L679.641 79.3556V104.093C679.641 104.344 679.69 104.592 679.785 104.823C679.879 105.055 680.019 105.265 680.194 105.443C680.369 105.62 680.577 105.76 680.806 105.856C681.035 105.951 681.281 106 681.529 106H714.093C714.341 106 714.586 105.951 714.815 105.856C715.044 105.76 715.252 105.619 715.427 105.442C715.602 105.265 715.741 105.055 715.835 104.823C715.93 104.592 715.978 104.343 715.978 104.093V78.985L719.066 82.1092C719.668 82.7179 720.485 83.0599 721.336 83.0599C722.187 83.0599 723.004 82.7179 723.606 82.1092L725.059 80.639C725.358 80.3376 725.594 79.9798 725.756 79.5859C725.917 79.1919 726 78.7697 726 78.3433C726 77.9169 725.917 77.4946 725.756 77.1007C725.594 76.7068 725.358 76.3489 725.059 76.0476Z" fill="black"/>
</g>
<g id="Icon/Replay">
<path id="Fill" fill-rule="evenodd" clip-rule="evenodd" d="M819.004 79.0009C819.004 79.0009 814.504 78.5009 813.683 82.2728C812.917 89.5087 807.099 95.135 800.035 95.135C792.45 95.135 786.3 88.648 786.3 80.6465C786.3 73.9727 791.776 69.6189 797.997 68.3586C799.053 68.1442 800.035 69.0003 800.035 70.135V73.5516C800.035 75.014 801.597 75.8716 802.732 75.0324L816.471 64.8885C816.93 64.5485 817.203 63.9972 817.203 63.4061C817.203 62.8578 816.966 62.3372 816.56 61.9941L802.821 50.4C801.697 49.452 800.035 50.2958 800.035 51.8119V55.5194C800.035 56.4382 799.383 57.2147 798.516 57.3157C786.519 58.7185 776 67.7905 776 80.6465C776 94.6496 786.76 106.002 800.035 106.002C812.688 106.002 823.058 95.6863 824 82.5929C824 80.5009 822.005 79.0009 819.004 79.0009Z" fill="black"/>
</g>
<g id="Icon/Levels">
<path id="Rectangle_3" d="M894.281 50H875.719C874.77 50 874 50.7835 874 51.75V62.25C874 63.2165 874.77 64 875.719 64H894.281C895.23 64 896 63.2165 896 62.25V51.75C896 50.7835 895.23 50 894.281 50Z" fill="black"/>
<path id="Rectangle_4" d="M894.281 71H875.719C874.77 71 874 71.7835 874 72.75V83.25C874 84.2165 874.77 85 875.719 85H894.281C895.23 85 896 84.2165 896 83.25V72.75C896 71.7835 895.23 71 894.281 71Z" fill="black"/>
<path id="Rectangle_5" d="M894.281 92H875.719C874.77 92 874 92.7835 874 93.75V104.25C874 105.216 874.77 106 875.719 106H894.281C895.23 106 896 105.216 896 104.25V93.75C896 92.7835 895.23 92 894.281 92Z" fill="black"/>
<path id="Rectangle_6" d="M928.281 50H909.719C908.77 50 908 50.7835 908 51.75V62.25C908 63.2165 908.77 64 909.719 64H928.281C929.23 64 930 63.2165 930 62.25V51.75C930 50.7835 929.23 50 928.281 50Z" fill="black"/>
<path id="Rectangle_7" d="M928.281 71H909.719C908.77 71 908 71.7835 908 72.75V83.25C908 84.2165 908.77 85 909.719 85H928.281C929.23 85 930 84.2165 930 83.25V72.75C930 71.7835 929.23 71 928.281 71Z" fill="black"/>
<path id="Rectangle_8" d="M928.281 92H909.719C908.77 92 908 92.7835 908 93.75V104.25C908 105.216 908.77 106 909.719 106H928.281C929.23 106 930 105.216 930 104.25V93.75C930 92.7835 929.23 92 928.281 92Z" fill="black"/>
</g>
<g id="Icon/ArrowLeft">
<path id="ArrowLeft" d="M983.012 84.0937C978.996 80.9687 978.996 75.0313 983.012 71.9063L1008.95 51.7272C1014.21 47.6353 1022 51.2739 1022 57.8209V98.1791C1022 104.726 1014.21 108.365 1008.95 104.273L983.012 84.0937Z" fill="black"/>
</g>
<g id="Icon/ArrowRight">
<path id="ArrowRight" d="M1110.99 71.9072C1115 75.0322 1115 80.9696 1110.99 84.0946L1085.05 104.274C1079.79 108.366 1072 104.727 1072 98.18L1072 57.8218C1072 51.2748 1079.79 47.6362 1085.05 51.7281L1110.99 71.9072Z" fill="black"/>
</g>
</g>
</svg>
