<svg width="580" height="397" viewBox="0 0 580 397" fill="none" xmlns="http://www.w3.org/2000/svg">
<rect x="50" y="50" width="125" height="24" rx="4" fill="#FED70A"/>
<path d="M59.0801 67V56.9785H62.8604C63.5257 56.9785 64.0339 57.0104 64.3848 57.0742C64.877 57.1562 65.2894 57.3135 65.6221 57.5459C65.9548 57.7738 66.2214 58.0951 66.4219 58.5098C66.627 58.9245 66.7295 59.3802 66.7295 59.877C66.7295 60.7292 66.4583 61.4515 65.916 62.0439C65.3737 62.6318 64.3939 62.9258 62.9766 62.9258H60.4062V67H59.0801ZM60.4062 61.7432H62.9971C63.8538 61.7432 64.4622 61.5837 64.8223 61.2646C65.1823 60.9456 65.3623 60.4967 65.3623 59.918C65.3623 59.4987 65.2552 59.141 65.041 58.8447C64.8314 58.5439 64.5534 58.3457 64.207 58.25C63.9837 58.1908 63.5713 58.1611 62.9697 58.1611H60.4062V61.7432ZM68.2471 67V59.7402H69.3545V60.8408C69.637 60.3258 69.8968 59.9863 70.1338 59.8223C70.3753 59.6582 70.6396 59.5762 70.9268 59.5762C71.3415 59.5762 71.763 59.7083 72.1914 59.9727L71.7676 61.1143C71.4668 60.9365 71.166 60.8477 70.8652 60.8477C70.5964 60.8477 70.3548 60.9297 70.1406 61.0938C69.9264 61.2533 69.7738 61.4766 69.6826 61.7637C69.5459 62.2012 69.4775 62.6797 69.4775 63.1992V67H68.2471ZM72.4648 63.3701C72.4648 62.0257 72.8385 61.0299 73.5859 60.3828C74.2103 59.8451 74.9714 59.5762 75.8691 59.5762C76.8672 59.5762 77.6829 59.9043 78.3164 60.5605C78.9499 61.2122 79.2666 62.1146 79.2666 63.2676C79.2666 64.2018 79.1253 64.9378 78.8428 65.4756C78.5648 66.0088 78.1569 66.4235 77.6191 66.7197C77.0859 67.016 76.5026 67.1641 75.8691 67.1641C74.8529 67.1641 74.0303 66.8382 73.4014 66.1865C72.777 65.5348 72.4648 64.596 72.4648 63.3701ZM73.7295 63.3701C73.7295 64.2998 73.9323 64.9971 74.3379 65.4619C74.7435 65.9222 75.2539 66.1523 75.8691 66.1523C76.4798 66.1523 76.988 65.9199 77.3936 65.4551C77.7992 64.9902 78.002 64.2816 78.002 63.3291C78.002 62.4313 77.7969 61.7523 77.3867 61.292C76.9811 60.8271 76.4753 60.5947 75.8691 60.5947C75.2539 60.5947 74.7435 60.8249 74.3379 61.2852C73.9323 61.7454 73.7295 62.4404 73.7295 63.3701ZM80.4902 67.6016L81.6865 67.7793C81.7367 68.1484 81.8757 68.4173 82.1035 68.5859C82.4089 68.8138 82.8258 68.9277 83.3545 68.9277C83.9242 68.9277 84.3639 68.8138 84.6738 68.5859C84.9837 68.3581 85.1934 68.0391 85.3027 67.6289C85.3665 67.3783 85.3962 66.8519 85.3916 66.0498C84.8538 66.6833 84.1839 67 83.3818 67C82.3838 67 81.6113 66.64 81.0645 65.9199C80.5176 65.1999 80.2441 64.3363 80.2441 63.3291C80.2441 62.6364 80.3695 61.9984 80.6201 61.415C80.8708 60.8271 81.2331 60.3737 81.707 60.0547C82.1855 59.7357 82.7461 59.5762 83.3887 59.5762C84.2454 59.5762 84.9518 59.9225 85.5078 60.6152V59.7402H86.6426V66.0156C86.6426 67.1458 86.5264 67.9456 86.2939 68.415C86.0661 68.889 85.7015 69.2627 85.2002 69.5361C84.7035 69.8096 84.0905 69.9463 83.3613 69.9463C82.4954 69.9463 81.7959 69.7503 81.2627 69.3584C80.7295 68.971 80.472 68.3854 80.4902 67.6016ZM81.5088 63.2402C81.5088 64.1927 81.6979 64.8877 82.0762 65.3252C82.4544 65.7627 82.9284 65.9814 83.498 65.9814C84.0632 65.9814 84.5371 65.765 84.9199 65.332C85.3027 64.8945 85.4941 64.2109 85.4941 63.2812C85.4941 62.3926 85.2959 61.7227 84.8994 61.2715C84.5075 60.8203 84.0335 60.5947 83.4775 60.5947C82.9307 60.5947 82.4658 60.818 82.083 61.2646C81.7002 61.7067 81.5088 62.3652 81.5088 63.2402ZM88.4951 67V59.7402H89.6025V60.8408C89.8851 60.3258 90.1449 59.9863 90.3818 59.8223C90.6234 59.6582 90.8877 59.5762 91.1748 59.5762C91.5895 59.5762 92.0111 59.7083 92.4395 59.9727L92.0156 61.1143C91.7148 60.9365 91.4141 60.8477 91.1133 60.8477C90.8444 60.8477 90.6029 60.9297 90.3887 61.0938C90.1745 61.2533 90.0218 61.4766 89.9307 61.7637C89.7939 62.2012 89.7256 62.6797 89.7256 63.1992V67H88.4951ZM98.1406 64.6621L99.4121 64.8193C99.2116 65.5622 98.8402 66.1387 98.2979 66.5488C97.7555 66.959 97.0628 67.1641 96.2197 67.1641C95.1579 67.1641 94.3148 66.8382 93.6904 66.1865C93.0706 65.5303 92.7607 64.612 92.7607 63.4316C92.7607 62.2103 93.0752 61.2624 93.7041 60.5879C94.333 59.9134 95.1488 59.5762 96.1514 59.5762C97.1221 59.5762 97.915 59.9066 98.5303 60.5674C99.1455 61.2282 99.4531 62.1579 99.4531 63.3564C99.4531 63.4294 99.4508 63.5387 99.4463 63.6846H94.0322C94.0778 64.4821 94.3034 65.0928 94.709 65.5166C95.1146 65.9404 95.6204 66.1523 96.2266 66.1523C96.6777 66.1523 97.0628 66.0339 97.3818 65.7969C97.7008 65.5599 97.9538 65.1816 98.1406 64.6621ZM94.1006 62.6729H98.1543C98.0996 62.0622 97.9447 61.6042 97.6895 61.2988C97.2975 60.8249 96.7894 60.5879 96.165 60.5879C95.5999 60.5879 95.1237 60.777 94.7363 61.1553C94.3535 61.5335 94.1416 62.0394 94.1006 62.6729ZM100.472 64.833L101.688 64.6416C101.757 65.1292 101.946 65.5029 102.256 65.7627C102.57 66.0225 103.008 66.1523 103.568 66.1523C104.133 66.1523 104.553 66.0384 104.826 65.8105C105.1 65.5781 105.236 65.307 105.236 64.9971C105.236 64.7191 105.116 64.5003 104.874 64.3408C104.705 64.2314 104.286 64.0924 103.616 63.9238C102.714 63.696 102.087 63.5 101.736 63.3359C101.39 63.1673 101.126 62.9372 100.943 62.6455C100.766 62.3493 100.677 62.0234 100.677 61.668C100.677 61.3444 100.75 61.0459 100.896 60.7725C101.046 60.4945 101.249 60.2643 101.504 60.082C101.695 59.9408 101.955 59.8223 102.283 59.7266C102.616 59.6263 102.971 59.5762 103.35 59.5762C103.919 59.5762 104.418 59.6582 104.847 59.8223C105.28 59.9863 105.599 60.2096 105.804 60.4922C106.009 60.7702 106.15 61.1439 106.228 61.6133L105.024 61.7773C104.97 61.4036 104.81 61.112 104.546 60.9023C104.286 60.6927 103.917 60.5879 103.438 60.5879C102.873 60.5879 102.47 60.6813 102.229 60.8682C101.987 61.055 101.866 61.2738 101.866 61.5244C101.866 61.6839 101.916 61.8275 102.017 61.9551C102.117 62.0872 102.274 62.1966 102.488 62.2832C102.611 62.3288 102.974 62.4336 103.575 62.5977C104.446 62.8301 105.052 63.0215 105.394 63.1719C105.74 63.3177 106.011 63.5319 106.207 63.8145C106.403 64.097 106.501 64.4479 106.501 64.8672C106.501 65.2773 106.38 65.6647 106.139 66.0293C105.902 66.3893 105.558 66.6696 105.106 66.8701C104.655 67.0661 104.145 67.1641 103.575 67.1641C102.632 67.1641 101.912 66.9681 101.415 66.5762C100.923 66.1842 100.608 65.6032 100.472 64.833ZM107.472 64.833L108.688 64.6416C108.757 65.1292 108.946 65.5029 109.256 65.7627C109.57 66.0225 110.008 66.1523 110.568 66.1523C111.133 66.1523 111.553 66.0384 111.826 65.8105C112.1 65.5781 112.236 65.307 112.236 64.9971C112.236 64.7191 112.116 64.5003 111.874 64.3408C111.705 64.2314 111.286 64.0924 110.616 63.9238C109.714 63.696 109.087 63.5 108.736 63.3359C108.39 63.1673 108.126 62.9372 107.943 62.6455C107.766 62.3493 107.677 62.0234 107.677 61.668C107.677 61.3444 107.75 61.0459 107.896 60.7725C108.046 60.4945 108.249 60.2643 108.504 60.082C108.695 59.9408 108.955 59.8223 109.283 59.7266C109.616 59.6263 109.971 59.5762 110.35 59.5762C110.919 59.5762 111.418 59.6582 111.847 59.8223C112.28 59.9863 112.599 60.2096 112.804 60.4922C113.009 60.7702 113.15 61.1439 113.228 61.6133L112.024 61.7773C111.97 61.4036 111.81 61.112 111.546 60.9023C111.286 60.6927 110.917 60.5879 110.438 60.5879C109.873 60.5879 109.47 60.6813 109.229 60.8682C108.987 61.055 108.866 61.2738 108.866 61.5244C108.866 61.6839 108.916 61.8275 109.017 61.9551C109.117 62.0872 109.274 62.1966 109.488 62.2832C109.611 62.3288 109.974 62.4336 110.575 62.5977C111.446 62.8301 112.052 63.0215 112.394 63.1719C112.74 63.3177 113.011 63.5319 113.207 63.8145C113.403 64.097 113.501 64.4479 113.501 64.8672C113.501 65.2773 113.38 65.6647 113.139 66.0293C112.902 66.3893 112.558 66.6696 112.106 66.8701C111.655 67.0661 111.145 67.1641 110.575 67.1641C109.632 67.1641 108.912 66.9681 108.415 66.5762C107.923 66.1842 107.608 65.6032 107.472 64.833ZM115.066 67V56.9785H118.826C119.592 56.9785 120.205 57.0811 120.665 57.2861C121.13 57.4867 121.492 57.7988 121.752 58.2227C122.016 58.6419 122.148 59.0817 122.148 59.542C122.148 59.9704 122.032 60.3737 121.8 60.752C121.567 61.1302 121.216 61.4355 120.747 61.668C121.353 61.8457 121.818 62.1488 122.142 62.5771C122.47 63.0055 122.634 63.5114 122.634 64.0947C122.634 64.5641 122.534 65.0016 122.333 65.4072C122.137 65.8083 121.893 66.1182 121.602 66.3369C121.31 66.5557 120.943 66.722 120.501 66.8359C120.063 66.9453 119.526 67 118.888 67H115.066ZM116.393 61.1895H118.56C119.147 61.1895 119.569 61.1507 119.824 61.0732C120.161 60.973 120.414 60.8066 120.583 60.5742C120.756 60.3418 120.843 60.0501 120.843 59.6992C120.843 59.3665 120.763 59.0749 120.604 58.8242C120.444 58.569 120.216 58.3958 119.92 58.3047C119.624 58.209 119.116 58.1611 118.396 58.1611H116.393V61.1895ZM116.393 65.8174H118.888C119.316 65.8174 119.617 65.8014 119.79 65.7695C120.095 65.7148 120.351 65.6237 120.556 65.4961C120.761 65.3685 120.929 65.1839 121.062 64.9424C121.194 64.6963 121.26 64.4137 121.26 64.0947C121.26 63.721 121.164 63.3975 120.973 63.124C120.781 62.846 120.515 62.6523 120.173 62.543C119.836 62.429 119.348 62.3721 118.71 62.3721H116.393V65.8174ZM129.039 66.1045C128.583 66.4919 128.144 66.7653 127.72 66.9248C127.3 67.0843 126.849 67.1641 126.366 67.1641C125.569 67.1641 124.956 66.9704 124.527 66.583C124.099 66.1911 123.885 65.6921 123.885 65.0859C123.885 64.7305 123.965 64.4069 124.124 64.1152C124.288 63.819 124.5 63.582 124.76 63.4043C125.024 63.2266 125.32 63.0921 125.648 63.001C125.89 62.9372 126.255 62.8757 126.742 62.8164C127.736 62.6979 128.467 62.5566 128.937 62.3926C128.941 62.224 128.943 62.1169 128.943 62.0713C128.943 61.57 128.827 61.2168 128.595 61.0117C128.28 60.7337 127.813 60.5947 127.193 60.5947C126.615 60.5947 126.186 60.6973 125.908 60.9023C125.635 61.1029 125.432 61.4606 125.3 61.9756L124.097 61.8115C124.206 61.2965 124.386 60.8818 124.637 60.5674C124.887 60.2484 125.25 60.0046 125.724 59.8359C126.198 59.6628 126.747 59.5762 127.371 59.5762C127.991 59.5762 128.494 59.6491 128.882 59.7949C129.269 59.9408 129.554 60.1253 129.736 60.3486C129.919 60.5674 130.046 60.8454 130.119 61.1826C130.16 61.3923 130.181 61.7705 130.181 62.3174V63.958C130.181 65.1019 130.206 65.8265 130.256 66.1318C130.311 66.4326 130.415 66.722 130.57 67H129.285C129.158 66.7448 129.076 66.4463 129.039 66.1045ZM128.937 63.3564C128.49 63.5387 127.82 63.6937 126.927 63.8213C126.421 63.8942 126.063 63.9762 125.854 64.0674C125.644 64.1585 125.482 64.293 125.368 64.4707C125.254 64.6439 125.197 64.8376 125.197 65.0518C125.197 65.3799 125.32 65.6533 125.566 65.8721C125.817 66.0908 126.182 66.2002 126.66 66.2002C127.134 66.2002 127.556 66.0977 127.925 65.8926C128.294 65.6829 128.565 65.3981 128.738 65.0381C128.87 64.7601 128.937 64.3499 128.937 63.8076V63.3564ZM132.081 67V59.7402H133.188V60.8408C133.471 60.3258 133.731 59.9863 133.968 59.8223C134.209 59.6582 134.474 59.5762 134.761 59.5762C135.175 59.5762 135.597 59.7083 136.025 59.9727L135.602 61.1143C135.301 60.9365 135 60.8477 134.699 60.8477C134.43 60.8477 134.189 60.9297 133.975 61.0938C133.76 61.2533 133.608 61.4766 133.517 61.7637C133.38 62.2012 133.312 62.6797 133.312 63.1992V67H132.081ZM135.834 67.1709L138.739 56.8076H139.724L136.825 67.1709H135.834ZM140.756 67V56.9785H142.082V65.8174H147.018V67H140.756ZM148.453 58.3936V56.9785H149.684V58.3936H148.453ZM148.453 67V59.7402H149.684V67H148.453ZM151.563 67V59.7402H152.671V60.7725C153.204 59.9749 153.974 59.5762 154.981 59.5762C155.419 59.5762 155.82 59.6559 156.185 59.8154C156.554 59.9704 156.829 60.1755 157.012 60.4307C157.194 60.6859 157.322 60.9889 157.395 61.3398C157.44 61.5677 157.463 61.9665 157.463 62.5361V67H156.232V62.584C156.232 62.0827 156.185 61.709 156.089 61.4629C155.993 61.2122 155.822 61.014 155.576 60.8682C155.335 60.7178 155.05 60.6426 154.722 60.6426C154.198 60.6426 153.744 60.8089 153.361 61.1416C152.983 61.4743 152.794 62.1055 152.794 63.0352V67H151.563ZM164.326 64.6621L165.598 64.8193C165.397 65.5622 165.026 66.1387 164.483 66.5488C163.941 66.959 163.248 67.1641 162.405 67.1641C161.343 67.1641 160.5 66.8382 159.876 66.1865C159.256 65.5303 158.946 64.612 158.946 63.4316C158.946 62.2103 159.261 61.2624 159.89 60.5879C160.519 59.9134 161.334 59.5762 162.337 59.5762C163.308 59.5762 164.101 59.9066 164.716 60.5674C165.331 61.2282 165.639 62.1579 165.639 63.3564C165.639 63.4294 165.636 63.5387 165.632 63.6846H160.218C160.263 64.4821 160.489 65.0928 160.895 65.5166C161.3 65.9404 161.806 66.1523 162.412 66.1523C162.863 66.1523 163.248 66.0339 163.567 65.7969C163.886 65.5599 164.139 65.1816 164.326 64.6621ZM160.286 62.6729H164.34C164.285 62.0622 164.13 61.6042 163.875 61.2988C163.483 60.8249 162.975 60.5879 162.351 60.5879C161.785 60.5879 161.309 60.777 160.922 61.1553C160.539 61.5335 160.327 62.0394 160.286 62.6729Z" fill="#212121"/>
<g filter="url(#filter0_d_242_4993)">
<rect x="50" y="99" width="446" height="20" rx="3" fill="#E52554"/>
</g>
<rect x="50" y="144" width="173" height="24" rx="4" fill="#FED70A"/>
<path d="M59.0801 161V150.979H62.8604C63.5257 150.979 64.0339 151.01 64.3848 151.074C64.877 151.156 65.2894 151.313 65.6221 151.546C65.9548 151.774 66.2214 152.095 66.4219 152.51C66.627 152.924 66.7295 153.38 66.7295 153.877C66.7295 154.729 66.4583 155.451 65.916 156.044C65.3737 156.632 64.3939 156.926 62.9766 156.926H60.4062V161H59.0801ZM60.4062 155.743H62.9971C63.8538 155.743 64.4622 155.584 64.8223 155.265C65.1823 154.946 65.3623 154.497 65.3623 153.918C65.3623 153.499 65.2552 153.141 65.041 152.845C64.8314 152.544 64.5534 152.346 64.207 152.25C63.9837 152.191 63.5713 152.161 62.9697 152.161H60.4062V155.743ZM68.2471 161V153.74H69.3545V154.841C69.637 154.326 69.8968 153.986 70.1338 153.822C70.3753 153.658 70.6396 153.576 70.9268 153.576C71.3415 153.576 71.763 153.708 72.1914 153.973L71.7676 155.114C71.4668 154.937 71.166 154.848 70.8652 154.848C70.5964 154.848 70.3548 154.93 70.1406 155.094C69.9264 155.253 69.7738 155.477 69.6826 155.764C69.5459 156.201 69.4775 156.68 69.4775 157.199V161H68.2471ZM72.4648 157.37C72.4648 156.026 72.8385 155.03 73.5859 154.383C74.2103 153.845 74.9714 153.576 75.8691 153.576C76.8672 153.576 77.6829 153.904 78.3164 154.561C78.9499 155.212 79.2666 156.115 79.2666 157.268C79.2666 158.202 79.1253 158.938 78.8428 159.476C78.5648 160.009 78.1569 160.424 77.6191 160.72C77.0859 161.016 76.5026 161.164 75.8691 161.164C74.8529 161.164 74.0303 160.838 73.4014 160.187C72.777 159.535 72.4648 158.596 72.4648 157.37ZM73.7295 157.37C73.7295 158.3 73.9323 158.997 74.3379 159.462C74.7435 159.922 75.2539 160.152 75.8691 160.152C76.4798 160.152 76.988 159.92 77.3936 159.455C77.7992 158.99 78.002 158.282 78.002 157.329C78.002 156.431 77.7969 155.752 77.3867 155.292C76.9811 154.827 76.4753 154.595 75.8691 154.595C75.2539 154.595 74.7435 154.825 74.3379 155.285C73.9323 155.745 73.7295 156.44 73.7295 157.37ZM80.4902 161.602L81.6865 161.779C81.7367 162.148 81.8757 162.417 82.1035 162.586C82.4089 162.814 82.8258 162.928 83.3545 162.928C83.9242 162.928 84.3639 162.814 84.6738 162.586C84.9837 162.358 85.1934 162.039 85.3027 161.629C85.3665 161.378 85.3962 160.852 85.3916 160.05C84.8538 160.683 84.1839 161 83.3818 161C82.3838 161 81.6113 160.64 81.0645 159.92C80.5176 159.2 80.2441 158.336 80.2441 157.329C80.2441 156.636 80.3695 155.998 80.6201 155.415C80.8708 154.827 81.2331 154.374 81.707 154.055C82.1855 153.736 82.7461 153.576 83.3887 153.576C84.2454 153.576 84.9518 153.923 85.5078 154.615V153.74H86.6426V160.016C86.6426 161.146 86.5264 161.946 86.2939 162.415C86.0661 162.889 85.7015 163.263 85.2002 163.536C84.7035 163.81 84.0905 163.946 83.3613 163.946C82.4954 163.946 81.7959 163.75 81.2627 163.358C80.7295 162.971 80.472 162.385 80.4902 161.602ZM81.5088 157.24C81.5088 158.193 81.6979 158.888 82.0762 159.325C82.4544 159.763 82.9284 159.981 83.498 159.981C84.0632 159.981 84.5371 159.765 84.9199 159.332C85.3027 158.895 85.4941 158.211 85.4941 157.281C85.4941 156.393 85.2959 155.723 84.8994 155.271C84.5075 154.82 84.0335 154.595 83.4775 154.595C82.9307 154.595 82.4658 154.818 82.083 155.265C81.7002 155.707 81.5088 156.365 81.5088 157.24ZM88.4951 161V153.74H89.6025V154.841C89.8851 154.326 90.1449 153.986 90.3818 153.822C90.6234 153.658 90.8877 153.576 91.1748 153.576C91.5895 153.576 92.0111 153.708 92.4395 153.973L92.0156 155.114C91.7148 154.937 91.4141 154.848 91.1133 154.848C90.8444 154.848 90.6029 154.93 90.3887 155.094C90.1745 155.253 90.0218 155.477 89.9307 155.764C89.7939 156.201 89.7256 156.68 89.7256 157.199V161H88.4951ZM98.1406 158.662L99.4121 158.819C99.2116 159.562 98.8402 160.139 98.2979 160.549C97.7555 160.959 97.0628 161.164 96.2197 161.164C95.1579 161.164 94.3148 160.838 93.6904 160.187C93.0706 159.53 92.7607 158.612 92.7607 157.432C92.7607 156.21 93.0752 155.262 93.7041 154.588C94.333 153.913 95.1488 153.576 96.1514 153.576C97.1221 153.576 97.915 153.907 98.5303 154.567C99.1455 155.228 99.4531 156.158 99.4531 157.356C99.4531 157.429 99.4508 157.539 99.4463 157.685H94.0322C94.0778 158.482 94.3034 159.093 94.709 159.517C95.1146 159.94 95.6204 160.152 96.2266 160.152C96.6777 160.152 97.0628 160.034 97.3818 159.797C97.7008 159.56 97.9538 159.182 98.1406 158.662ZM94.1006 156.673H98.1543C98.0996 156.062 97.9447 155.604 97.6895 155.299C97.2975 154.825 96.7894 154.588 96.165 154.588C95.5999 154.588 95.1237 154.777 94.7363 155.155C94.3535 155.534 94.1416 156.039 94.1006 156.673ZM100.472 158.833L101.688 158.642C101.757 159.129 101.946 159.503 102.256 159.763C102.57 160.022 103.008 160.152 103.568 160.152C104.133 160.152 104.553 160.038 104.826 159.811C105.1 159.578 105.236 159.307 105.236 158.997C105.236 158.719 105.116 158.5 104.874 158.341C104.705 158.231 104.286 158.092 103.616 157.924C102.714 157.696 102.087 157.5 101.736 157.336C101.39 157.167 101.126 156.937 100.943 156.646C100.766 156.349 100.677 156.023 100.677 155.668C100.677 155.344 100.75 155.046 100.896 154.772C101.046 154.494 101.249 154.264 101.504 154.082C101.695 153.941 101.955 153.822 102.283 153.727C102.616 153.626 102.971 153.576 103.35 153.576C103.919 153.576 104.418 153.658 104.847 153.822C105.28 153.986 105.599 154.21 105.804 154.492C106.009 154.77 106.15 155.144 106.228 155.613L105.024 155.777C104.97 155.404 104.81 155.112 104.546 154.902C104.286 154.693 103.917 154.588 103.438 154.588C102.873 154.588 102.47 154.681 102.229 154.868C101.987 155.055 101.866 155.274 101.866 155.524C101.866 155.684 101.916 155.827 102.017 155.955C102.117 156.087 102.274 156.197 102.488 156.283C102.611 156.329 102.974 156.434 103.575 156.598C104.446 156.83 105.052 157.021 105.394 157.172C105.74 157.318 106.011 157.532 106.207 157.814C106.403 158.097 106.501 158.448 106.501 158.867C106.501 159.277 106.38 159.665 106.139 160.029C105.902 160.389 105.558 160.67 105.106 160.87C104.655 161.066 104.145 161.164 103.575 161.164C102.632 161.164 101.912 160.968 101.415 160.576C100.923 160.184 100.608 159.603 100.472 158.833ZM107.472 158.833L108.688 158.642C108.757 159.129 108.946 159.503 109.256 159.763C109.57 160.022 110.008 160.152 110.568 160.152C111.133 160.152 111.553 160.038 111.826 159.811C112.1 159.578 112.236 159.307 112.236 158.997C112.236 158.719 112.116 158.5 111.874 158.341C111.705 158.231 111.286 158.092 110.616 157.924C109.714 157.696 109.087 157.5 108.736 157.336C108.39 157.167 108.126 156.937 107.943 156.646C107.766 156.349 107.677 156.023 107.677 155.668C107.677 155.344 107.75 155.046 107.896 154.772C108.046 154.494 108.249 154.264 108.504 154.082C108.695 153.941 108.955 153.822 109.283 153.727C109.616 153.626 109.971 153.576 110.35 153.576C110.919 153.576 111.418 153.658 111.847 153.822C112.28 153.986 112.599 154.21 112.804 154.492C113.009 154.77 113.15 155.144 113.228 155.613L112.024 155.777C111.97 155.404 111.81 155.112 111.546 154.902C111.286 154.693 110.917 154.588 110.438 154.588C109.873 154.588 109.47 154.681 109.229 154.868C108.987 155.055 108.866 155.274 108.866 155.524C108.866 155.684 108.916 155.827 109.017 155.955C109.117 156.087 109.274 156.197 109.488 156.283C109.611 156.329 109.974 156.434 110.575 156.598C111.446 156.83 112.052 157.021 112.394 157.172C112.74 157.318 113.011 157.532 113.207 157.814C113.403 158.097 113.501 158.448 113.501 158.867C113.501 159.277 113.38 159.665 113.139 160.029C112.902 160.389 112.558 160.67 112.106 160.87C111.655 161.066 111.145 161.164 110.575 161.164C109.632 161.164 108.912 160.968 108.415 160.576C107.923 160.184 107.608 159.603 107.472 158.833ZM115.066 161V150.979H118.826C119.592 150.979 120.205 151.081 120.665 151.286C121.13 151.487 121.492 151.799 121.752 152.223C122.016 152.642 122.148 153.082 122.148 153.542C122.148 153.97 122.032 154.374 121.8 154.752C121.567 155.13 121.216 155.436 120.747 155.668C121.353 155.846 121.818 156.149 122.142 156.577C122.47 157.006 122.634 157.511 122.634 158.095C122.634 158.564 122.534 159.002 122.333 159.407C122.137 159.808 121.893 160.118 121.602 160.337C121.31 160.556 120.943 160.722 120.501 160.836C120.063 160.945 119.526 161 118.888 161H115.066ZM116.393 155.189H118.56C119.147 155.189 119.569 155.151 119.824 155.073C120.161 154.973 120.414 154.807 120.583 154.574C120.756 154.342 120.843 154.05 120.843 153.699C120.843 153.367 120.763 153.075 120.604 152.824C120.444 152.569 120.216 152.396 119.92 152.305C119.624 152.209 119.116 152.161 118.396 152.161H116.393V155.189ZM116.393 159.817H118.888C119.316 159.817 119.617 159.801 119.79 159.77C120.095 159.715 120.351 159.624 120.556 159.496C120.761 159.368 120.929 159.184 121.062 158.942C121.194 158.696 121.26 158.414 121.26 158.095C121.26 157.721 121.164 157.397 120.973 157.124C120.781 156.846 120.515 156.652 120.173 156.543C119.836 156.429 119.348 156.372 118.71 156.372H116.393V159.817ZM129.039 160.104C128.583 160.492 128.144 160.765 127.72 160.925C127.3 161.084 126.849 161.164 126.366 161.164C125.569 161.164 124.956 160.97 124.527 160.583C124.099 160.191 123.885 159.692 123.885 159.086C123.885 158.73 123.965 158.407 124.124 158.115C124.288 157.819 124.5 157.582 124.76 157.404C125.024 157.227 125.32 157.092 125.648 157.001C125.89 156.937 126.255 156.876 126.742 156.816C127.736 156.698 128.467 156.557 128.937 156.393C128.941 156.224 128.943 156.117 128.943 156.071C128.943 155.57 128.827 155.217 128.595 155.012C128.28 154.734 127.813 154.595 127.193 154.595C126.615 154.595 126.186 154.697 125.908 154.902C125.635 155.103 125.432 155.461 125.3 155.976L124.097 155.812C124.206 155.297 124.386 154.882 124.637 154.567C124.887 154.248 125.25 154.005 125.724 153.836C126.198 153.663 126.747 153.576 127.371 153.576C127.991 153.576 128.494 153.649 128.882 153.795C129.269 153.941 129.554 154.125 129.736 154.349C129.919 154.567 130.046 154.845 130.119 155.183C130.16 155.392 130.181 155.771 130.181 156.317V157.958C130.181 159.102 130.206 159.826 130.256 160.132C130.311 160.433 130.415 160.722 130.57 161H129.285C129.158 160.745 129.076 160.446 129.039 160.104ZM128.937 157.356C128.49 157.539 127.82 157.694 126.927 157.821C126.421 157.894 126.063 157.976 125.854 158.067C125.644 158.159 125.482 158.293 125.368 158.471C125.254 158.644 125.197 158.838 125.197 159.052C125.197 159.38 125.32 159.653 125.566 159.872C125.817 160.091 126.182 160.2 126.66 160.2C127.134 160.2 127.556 160.098 127.925 159.893C128.294 159.683 128.565 159.398 128.738 159.038C128.87 158.76 128.937 158.35 128.937 157.808V157.356ZM132.081 161V153.74H133.188V154.841C133.471 154.326 133.731 153.986 133.968 153.822C134.209 153.658 134.474 153.576 134.761 153.576C135.175 153.576 135.597 153.708 136.025 153.973L135.602 155.114C135.301 154.937 135 154.848 134.699 154.848C134.43 154.848 134.189 154.93 133.975 155.094C133.76 155.253 133.608 155.477 133.517 155.764C133.38 156.201 133.312 156.68 133.312 157.199V161H132.081ZM135.834 161.171L138.739 150.808H139.724L136.825 161.171H135.834ZM140.756 161V150.979H144.516C145.281 150.979 145.894 151.081 146.354 151.286C146.819 151.487 147.182 151.799 147.441 152.223C147.706 152.642 147.838 153.082 147.838 153.542C147.838 153.97 147.722 154.374 147.489 154.752C147.257 155.13 146.906 155.436 146.437 155.668C147.043 155.846 147.507 156.149 147.831 156.577C148.159 157.006 148.323 157.511 148.323 158.095C148.323 158.564 148.223 159.002 148.022 159.407C147.826 159.808 147.583 160.118 147.291 160.337C146.999 160.556 146.632 160.722 146.19 160.836C145.753 160.945 145.215 161 144.577 161H140.756ZM142.082 155.189H144.249C144.837 155.189 145.258 155.151 145.514 155.073C145.851 154.973 146.104 154.807 146.272 154.574C146.446 154.342 146.532 154.05 146.532 153.699C146.532 153.367 146.452 153.075 146.293 152.824C146.133 152.569 145.906 152.396 145.609 152.305C145.313 152.209 144.805 152.161 144.085 152.161H142.082V155.189ZM142.082 159.817H144.577C145.006 159.817 145.306 159.801 145.479 159.77C145.785 159.715 146.04 159.624 146.245 159.496C146.45 159.368 146.619 159.184 146.751 158.942C146.883 158.696 146.949 158.414 146.949 158.095C146.949 157.721 146.854 157.397 146.662 157.124C146.471 156.846 146.204 156.652 145.862 156.543C145.525 156.429 145.037 156.372 144.399 156.372H142.082V159.817ZM154.729 160.104C154.273 160.492 153.833 160.765 153.409 160.925C152.99 161.084 152.539 161.164 152.056 161.164C151.258 161.164 150.645 160.97 150.217 160.583C149.788 160.191 149.574 159.692 149.574 159.086C149.574 158.73 149.654 158.407 149.813 158.115C149.978 157.819 150.189 157.582 150.449 157.404C150.714 157.227 151.01 157.092 151.338 157.001C151.579 156.937 151.944 156.876 152.432 156.816C153.425 156.698 154.157 156.557 154.626 156.393C154.631 156.224 154.633 156.117 154.633 156.071C154.633 155.57 154.517 155.217 154.284 155.012C153.97 154.734 153.503 154.595 152.883 154.595C152.304 154.595 151.876 154.697 151.598 154.902C151.324 155.103 151.121 155.461 150.989 155.976L149.786 155.812C149.896 155.297 150.076 154.882 150.326 154.567C150.577 154.248 150.939 154.005 151.413 153.836C151.887 153.663 152.436 153.576 153.061 153.576C153.68 153.576 154.184 153.649 154.571 153.795C154.959 153.941 155.243 154.125 155.426 154.349C155.608 154.567 155.736 154.845 155.809 155.183C155.85 155.392 155.87 155.771 155.87 156.317V157.958C155.87 159.102 155.895 159.826 155.945 160.132C156 160.433 156.105 160.722 156.26 161H154.975C154.847 160.745 154.765 160.446 154.729 160.104ZM154.626 157.356C154.179 157.539 153.509 157.694 152.616 157.821C152.11 157.894 151.753 157.976 151.543 158.067C151.333 158.159 151.172 158.293 151.058 158.471C150.944 158.644 150.887 158.838 150.887 159.052C150.887 159.38 151.01 159.653 151.256 159.872C151.507 160.091 151.871 160.2 152.35 160.2C152.824 160.2 153.245 160.098 153.614 159.893C153.983 159.683 154.255 159.398 154.428 159.038C154.56 158.76 154.626 158.35 154.626 157.808V157.356ZM162.521 158.341L163.731 158.498C163.599 159.332 163.26 159.986 162.713 160.46C162.171 160.929 161.503 161.164 160.71 161.164C159.716 161.164 158.917 160.84 158.311 160.193C157.709 159.542 157.408 158.61 157.408 157.397C157.408 156.614 157.538 155.928 157.798 155.34C158.058 154.752 158.452 154.312 158.98 154.021C159.514 153.724 160.092 153.576 160.717 153.576C161.505 153.576 162.15 153.777 162.651 154.178C163.153 154.574 163.474 155.139 163.615 155.873L162.419 156.058C162.305 155.57 162.102 155.203 161.811 154.957C161.523 154.711 161.175 154.588 160.765 154.588C160.145 154.588 159.641 154.811 159.254 155.258C158.867 155.7 158.673 156.402 158.673 157.363C158.673 158.339 158.86 159.047 159.233 159.489C159.607 159.931 160.095 160.152 160.696 160.152C161.179 160.152 161.583 160.004 161.906 159.708C162.23 159.412 162.435 158.956 162.521 158.341ZM164.791 161V150.979H166.021V156.693L168.934 153.74H170.526L167.751 156.434L170.807 161H169.289L166.89 157.288L166.021 158.122V161H164.791ZM171.559 161.602L172.755 161.779C172.805 162.148 172.944 162.417 173.172 162.586C173.477 162.814 173.894 162.928 174.423 162.928C174.993 162.928 175.432 162.814 175.742 162.586C176.052 162.358 176.262 162.039 176.371 161.629C176.435 161.378 176.465 160.852 176.46 160.05C175.922 160.683 175.252 161 174.45 161C173.452 161 172.68 160.64 172.133 159.92C171.586 159.2 171.312 158.336 171.312 157.329C171.312 156.636 171.438 155.998 171.688 155.415C171.939 154.827 172.301 154.374 172.775 154.055C173.254 153.736 173.814 153.576 174.457 153.576C175.314 153.576 176.02 153.923 176.576 154.615V153.74H177.711V160.016C177.711 161.146 177.595 161.946 177.362 162.415C177.134 162.889 176.77 163.263 176.269 163.536C175.772 163.81 175.159 163.946 174.43 163.946C173.564 163.946 172.864 163.75 172.331 163.358C171.798 162.971 171.54 162.385 171.559 161.602ZM172.577 157.24C172.577 158.193 172.766 158.888 173.145 159.325C173.523 159.763 173.997 159.981 174.566 159.981C175.132 159.981 175.605 159.765 175.988 159.332C176.371 158.895 176.562 158.211 176.562 157.281C176.562 156.393 176.364 155.723 175.968 155.271C175.576 154.82 175.102 154.595 174.546 154.595C173.999 154.595 173.534 154.818 173.151 155.265C172.769 155.707 172.577 156.365 172.577 157.24ZM179.563 161V153.74H180.671V154.841C180.953 154.326 181.213 153.986 181.45 153.822C181.692 153.658 181.956 153.576 182.243 153.576C182.658 153.576 183.079 153.708 183.508 153.973L183.084 155.114C182.783 154.937 182.482 154.848 182.182 154.848C181.913 154.848 181.671 154.93 181.457 155.094C181.243 155.253 181.09 155.477 180.999 155.764C180.862 156.201 180.794 156.68 180.794 157.199V161H179.563ZM183.781 157.37C183.781 156.026 184.155 155.03 184.902 154.383C185.527 153.845 186.288 153.576 187.186 153.576C188.184 153.576 188.999 153.904 189.633 154.561C190.266 155.212 190.583 156.115 190.583 157.268C190.583 158.202 190.442 158.938 190.159 159.476C189.881 160.009 189.473 160.424 188.936 160.72C188.402 161.016 187.819 161.164 187.186 161.164C186.169 161.164 185.347 160.838 184.718 160.187C184.093 159.535 183.781 158.596 183.781 157.37ZM185.046 157.37C185.046 158.3 185.249 158.997 185.654 159.462C186.06 159.922 186.57 160.152 187.186 160.152C187.796 160.152 188.304 159.92 188.71 159.455C189.116 158.99 189.318 158.282 189.318 157.329C189.318 156.431 189.113 155.752 188.703 155.292C188.298 154.827 187.792 154.595 187.186 154.595C186.57 154.595 186.06 154.825 185.654 155.285C185.249 155.745 185.046 156.44 185.046 157.37ZM196.79 161V159.934C196.225 160.754 195.457 161.164 194.486 161.164C194.058 161.164 193.657 161.082 193.283 160.918C192.914 160.754 192.638 160.549 192.456 160.303C192.278 160.052 192.153 159.747 192.08 159.387C192.03 159.145 192.005 158.762 192.005 158.238V153.74H193.235V157.767C193.235 158.409 193.26 158.842 193.311 159.065C193.388 159.389 193.552 159.644 193.803 159.831C194.053 160.013 194.363 160.104 194.732 160.104C195.102 160.104 195.448 160.011 195.771 159.824C196.095 159.633 196.323 159.375 196.455 159.052C196.592 158.724 196.66 158.25 196.66 157.63V153.74H197.891V161H196.79ZM199.825 161V153.74H200.933V154.772C201.466 153.975 202.236 153.576 203.243 153.576C203.681 153.576 204.082 153.656 204.446 153.815C204.815 153.97 205.091 154.175 205.273 154.431C205.456 154.686 205.583 154.989 205.656 155.34C205.702 155.568 205.725 155.966 205.725 156.536V161H204.494V156.584C204.494 156.083 204.446 155.709 204.351 155.463C204.255 155.212 204.084 155.014 203.838 154.868C203.596 154.718 203.312 154.643 202.983 154.643C202.459 154.643 202.006 154.809 201.623 155.142C201.245 155.474 201.056 156.105 201.056 157.035V161H199.825ZM212.328 161V160.084C211.868 160.804 211.191 161.164 210.298 161.164C209.719 161.164 209.186 161.005 208.698 160.686C208.215 160.367 207.839 159.922 207.57 159.353C207.306 158.778 207.174 158.12 207.174 157.377C207.174 156.652 207.295 155.996 207.536 155.408C207.778 154.816 208.14 154.362 208.623 154.048C209.106 153.733 209.646 153.576 210.243 153.576C210.681 153.576 211.07 153.67 211.412 153.856C211.754 154.039 212.032 154.278 212.246 154.574V150.979H213.47V161H212.328ZM208.438 157.377C208.438 158.307 208.634 159.002 209.026 159.462C209.418 159.922 209.881 160.152 210.414 160.152C210.952 160.152 211.408 159.934 211.781 159.496C212.16 159.054 212.349 158.382 212.349 157.479C212.349 156.486 212.157 155.757 211.774 155.292C211.392 154.827 210.92 154.595 210.359 154.595C209.812 154.595 209.354 154.818 208.985 155.265C208.621 155.711 208.438 156.415 208.438 157.377Z" fill="#212121"/>
<g filter="url(#filter1_d_242_4993)">
<rect x="52" y="195" width="476" height="36" rx="2" stroke="#E52554" stroke-width="4" shape-rendering="crispEdges"/>
</g>
<rect x="50" y="258" width="153" height="24" rx="4" fill="#FED70A"/>
<path d="M59.0801 275V264.979H62.8604C63.5257 264.979 64.0339 265.01 64.3848 265.074C64.877 265.156 65.2894 265.313 65.6221 265.546C65.9548 265.774 66.2214 266.095 66.4219 266.51C66.627 266.924 66.7295 267.38 66.7295 267.877C66.7295 268.729 66.4583 269.451 65.916 270.044C65.3737 270.632 64.3939 270.926 62.9766 270.926H60.4062V275H59.0801ZM60.4062 269.743H62.9971C63.8538 269.743 64.4622 269.584 64.8223 269.265C65.1823 268.946 65.3623 268.497 65.3623 267.918C65.3623 267.499 65.2552 267.141 65.041 266.845C64.8314 266.544 64.5534 266.346 64.207 266.25C63.9837 266.191 63.5713 266.161 62.9697 266.161H60.4062V269.743ZM68.2471 275V267.74H69.3545V268.841C69.637 268.326 69.8968 267.986 70.1338 267.822C70.3753 267.658 70.6396 267.576 70.9268 267.576C71.3415 267.576 71.763 267.708 72.1914 267.973L71.7676 269.114C71.4668 268.937 71.166 268.848 70.8652 268.848C70.5964 268.848 70.3548 268.93 70.1406 269.094C69.9264 269.253 69.7738 269.477 69.6826 269.764C69.5459 270.201 69.4775 270.68 69.4775 271.199V275H68.2471ZM72.4648 271.37C72.4648 270.026 72.8385 269.03 73.5859 268.383C74.2103 267.845 74.9714 267.576 75.8691 267.576C76.8672 267.576 77.6829 267.904 78.3164 268.561C78.9499 269.212 79.2666 270.115 79.2666 271.268C79.2666 272.202 79.1253 272.938 78.8428 273.476C78.5648 274.009 78.1569 274.424 77.6191 274.72C77.0859 275.016 76.5026 275.164 75.8691 275.164C74.8529 275.164 74.0303 274.838 73.4014 274.187C72.777 273.535 72.4648 272.596 72.4648 271.37ZM73.7295 271.37C73.7295 272.3 73.9323 272.997 74.3379 273.462C74.7435 273.922 75.2539 274.152 75.8691 274.152C76.4798 274.152 76.988 273.92 77.3936 273.455C77.7992 272.99 78.002 272.282 78.002 271.329C78.002 270.431 77.7969 269.752 77.3867 269.292C76.9811 268.827 76.4753 268.595 75.8691 268.595C75.2539 268.595 74.7435 268.825 74.3379 269.285C73.9323 269.745 73.7295 270.44 73.7295 271.37ZM80.4902 275.602L81.6865 275.779C81.7367 276.148 81.8757 276.417 82.1035 276.586C82.4089 276.814 82.8258 276.928 83.3545 276.928C83.9242 276.928 84.3639 276.814 84.6738 276.586C84.9837 276.358 85.1934 276.039 85.3027 275.629C85.3665 275.378 85.3962 274.852 85.3916 274.05C84.8538 274.683 84.1839 275 83.3818 275C82.3838 275 81.6113 274.64 81.0645 273.92C80.5176 273.2 80.2441 272.336 80.2441 271.329C80.2441 270.636 80.3695 269.998 80.6201 269.415C80.8708 268.827 81.2331 268.374 81.707 268.055C82.1855 267.736 82.7461 267.576 83.3887 267.576C84.2454 267.576 84.9518 267.923 85.5078 268.615V267.74H86.6426V274.016C86.6426 275.146 86.5264 275.946 86.2939 276.415C86.0661 276.889 85.7015 277.263 85.2002 277.536C84.7035 277.81 84.0905 277.946 83.3613 277.946C82.4954 277.946 81.7959 277.75 81.2627 277.358C80.7295 276.971 80.472 276.385 80.4902 275.602ZM81.5088 271.24C81.5088 272.193 81.6979 272.888 82.0762 273.325C82.4544 273.763 82.9284 273.981 83.498 273.981C84.0632 273.981 84.5371 273.765 84.9199 273.332C85.3027 272.895 85.4941 272.211 85.4941 271.281C85.4941 270.393 85.2959 269.723 84.8994 269.271C84.5075 268.82 84.0335 268.595 83.4775 268.595C82.9307 268.595 82.4658 268.818 82.083 269.265C81.7002 269.707 81.5088 270.365 81.5088 271.24ZM88.4951 275V267.74H89.6025V268.841C89.8851 268.326 90.1449 267.986 90.3818 267.822C90.6234 267.658 90.8877 267.576 91.1748 267.576C91.5895 267.576 92.0111 267.708 92.4395 267.973L92.0156 269.114C91.7148 268.937 91.4141 268.848 91.1133 268.848C90.8444 268.848 90.6029 268.93 90.3887 269.094C90.1745 269.253 90.0218 269.477 89.9307 269.764C89.7939 270.201 89.7256 270.68 89.7256 271.199V275H88.4951ZM98.1406 272.662L99.4121 272.819C99.2116 273.562 98.8402 274.139 98.2979 274.549C97.7555 274.959 97.0628 275.164 96.2197 275.164C95.1579 275.164 94.3148 274.838 93.6904 274.187C93.0706 273.53 92.7607 272.612 92.7607 271.432C92.7607 270.21 93.0752 269.262 93.7041 268.588C94.333 267.913 95.1488 267.576 96.1514 267.576C97.1221 267.576 97.915 267.907 98.5303 268.567C99.1455 269.228 99.4531 270.158 99.4531 271.356C99.4531 271.429 99.4508 271.539 99.4463 271.685H94.0322C94.0778 272.482 94.3034 273.093 94.709 273.517C95.1146 273.94 95.6204 274.152 96.2266 274.152C96.6777 274.152 97.0628 274.034 97.3818 273.797C97.7008 273.56 97.9538 273.182 98.1406 272.662ZM94.1006 270.673H98.1543C98.0996 270.062 97.9447 269.604 97.6895 269.299C97.2975 268.825 96.7894 268.588 96.165 268.588C95.5999 268.588 95.1237 268.777 94.7363 269.155C94.3535 269.534 94.1416 270.039 94.1006 270.673ZM100.472 272.833L101.688 272.642C101.757 273.129 101.946 273.503 102.256 273.763C102.57 274.022 103.008 274.152 103.568 274.152C104.133 274.152 104.553 274.038 104.826 273.811C105.1 273.578 105.236 273.307 105.236 272.997C105.236 272.719 105.116 272.5 104.874 272.341C104.705 272.231 104.286 272.092 103.616 271.924C102.714 271.696 102.087 271.5 101.736 271.336C101.39 271.167 101.126 270.937 100.943 270.646C100.766 270.349 100.677 270.023 100.677 269.668C100.677 269.344 100.75 269.046 100.896 268.772C101.046 268.494 101.249 268.264 101.504 268.082C101.695 267.941 101.955 267.822 102.283 267.727C102.616 267.626 102.971 267.576 103.35 267.576C103.919 267.576 104.418 267.658 104.847 267.822C105.28 267.986 105.599 268.21 105.804 268.492C106.009 268.77 106.15 269.144 106.228 269.613L105.024 269.777C104.97 269.404 104.81 269.112 104.546 268.902C104.286 268.693 103.917 268.588 103.438 268.588C102.873 268.588 102.47 268.681 102.229 268.868C101.987 269.055 101.866 269.274 101.866 269.524C101.866 269.684 101.916 269.827 102.017 269.955C102.117 270.087 102.274 270.197 102.488 270.283C102.611 270.329 102.974 270.434 103.575 270.598C104.446 270.83 105.052 271.021 105.394 271.172C105.74 271.318 106.011 271.532 106.207 271.814C106.403 272.097 106.501 272.448 106.501 272.867C106.501 273.277 106.38 273.665 106.139 274.029C105.902 274.389 105.558 274.67 105.106 274.87C104.655 275.066 104.145 275.164 103.575 275.164C102.632 275.164 101.912 274.968 101.415 274.576C100.923 274.184 100.608 273.603 100.472 272.833ZM107.472 272.833L108.688 272.642C108.757 273.129 108.946 273.503 109.256 273.763C109.57 274.022 110.008 274.152 110.568 274.152C111.133 274.152 111.553 274.038 111.826 273.811C112.1 273.578 112.236 273.307 112.236 272.997C112.236 272.719 112.116 272.5 111.874 272.341C111.705 272.231 111.286 272.092 110.616 271.924C109.714 271.696 109.087 271.5 108.736 271.336C108.39 271.167 108.126 270.937 107.943 270.646C107.766 270.349 107.677 270.023 107.677 269.668C107.677 269.344 107.75 269.046 107.896 268.772C108.046 268.494 108.249 268.264 108.504 268.082C108.695 267.941 108.955 267.822 109.283 267.727C109.616 267.626 109.971 267.576 110.35 267.576C110.919 267.576 111.418 267.658 111.847 267.822C112.28 267.986 112.599 268.21 112.804 268.492C113.009 268.77 113.15 269.144 113.228 269.613L112.024 269.777C111.97 269.404 111.81 269.112 111.546 268.902C111.286 268.693 110.917 268.588 110.438 268.588C109.873 268.588 109.47 268.681 109.229 268.868C108.987 269.055 108.866 269.274 108.866 269.524C108.866 269.684 108.916 269.827 109.017 269.955C109.117 270.087 109.274 270.197 109.488 270.283C109.611 270.329 109.974 270.434 110.575 270.598C111.446 270.83 112.052 271.021 112.394 271.172C112.74 271.318 113.011 271.532 113.207 271.814C113.403 272.097 113.501 272.448 113.501 272.867C113.501 273.277 113.38 273.665 113.139 274.029C112.902 274.389 112.558 274.67 112.106 274.87C111.655 275.066 111.145 275.164 110.575 275.164C109.632 275.164 108.912 274.968 108.415 274.576C107.923 274.184 107.608 273.603 107.472 272.833ZM115.066 275V264.979H118.826C119.592 264.979 120.205 265.081 120.665 265.286C121.13 265.487 121.492 265.799 121.752 266.223C122.016 266.642 122.148 267.082 122.148 267.542C122.148 267.97 122.032 268.374 121.8 268.752C121.567 269.13 121.216 269.436 120.747 269.668C121.353 269.846 121.818 270.149 122.142 270.577C122.47 271.006 122.634 271.511 122.634 272.095C122.634 272.564 122.534 273.002 122.333 273.407C122.137 273.808 121.893 274.118 121.602 274.337C121.31 274.556 120.943 274.722 120.501 274.836C120.063 274.945 119.526 275 118.888 275H115.066ZM116.393 269.189H118.56C119.147 269.189 119.569 269.151 119.824 269.073C120.161 268.973 120.414 268.807 120.583 268.574C120.756 268.342 120.843 268.05 120.843 267.699C120.843 267.367 120.763 267.075 120.604 266.824C120.444 266.569 120.216 266.396 119.92 266.305C119.624 266.209 119.116 266.161 118.396 266.161H116.393V269.189ZM116.393 273.817H118.888C119.316 273.817 119.617 273.801 119.79 273.77C120.095 273.715 120.351 273.624 120.556 273.496C120.761 273.368 120.929 273.184 121.062 272.942C121.194 272.696 121.26 272.414 121.26 272.095C121.26 271.721 121.164 271.397 120.973 271.124C120.781 270.846 120.515 270.652 120.173 270.543C119.836 270.429 119.348 270.372 118.71 270.372H116.393V273.817ZM129.039 274.104C128.583 274.492 128.144 274.765 127.72 274.925C127.3 275.084 126.849 275.164 126.366 275.164C125.569 275.164 124.956 274.97 124.527 274.583C124.099 274.191 123.885 273.692 123.885 273.086C123.885 272.73 123.965 272.407 124.124 272.115C124.288 271.819 124.5 271.582 124.76 271.404C125.024 271.227 125.32 271.092 125.648 271.001C125.89 270.937 126.255 270.876 126.742 270.816C127.736 270.698 128.467 270.557 128.937 270.393C128.941 270.224 128.943 270.117 128.943 270.071C128.943 269.57 128.827 269.217 128.595 269.012C128.28 268.734 127.813 268.595 127.193 268.595C126.615 268.595 126.186 268.697 125.908 268.902C125.635 269.103 125.432 269.461 125.3 269.976L124.097 269.812C124.206 269.297 124.386 268.882 124.637 268.567C124.887 268.248 125.25 268.005 125.724 267.836C126.198 267.663 126.747 267.576 127.371 267.576C127.991 267.576 128.494 267.649 128.882 267.795C129.269 267.941 129.554 268.125 129.736 268.349C129.919 268.567 130.046 268.845 130.119 269.183C130.16 269.392 130.181 269.771 130.181 270.317V271.958C130.181 273.102 130.206 273.826 130.256 274.132C130.311 274.433 130.415 274.722 130.57 275H129.285C129.158 274.745 129.076 274.446 129.039 274.104ZM128.937 271.356C128.49 271.539 127.82 271.694 126.927 271.821C126.421 271.894 126.063 271.976 125.854 272.067C125.644 272.159 125.482 272.293 125.368 272.471C125.254 272.644 125.197 272.838 125.197 273.052C125.197 273.38 125.32 273.653 125.566 273.872C125.817 274.091 126.182 274.2 126.66 274.2C127.134 274.2 127.556 274.098 127.925 273.893C128.294 273.683 128.565 273.398 128.738 273.038C128.87 272.76 128.937 272.35 128.937 271.808V271.356ZM132.081 275V267.74H133.188V268.841C133.471 268.326 133.731 267.986 133.968 267.822C134.209 267.658 134.474 267.576 134.761 267.576C135.175 267.576 135.597 267.708 136.025 267.973L135.602 269.114C135.301 268.937 135 268.848 134.699 268.848C134.43 268.848 134.189 268.93 133.975 269.094C133.76 269.253 133.608 269.477 133.517 269.764C133.38 270.201 133.312 270.68 133.312 271.199V275H132.081ZM135.834 275.171L138.739 264.808H139.724L136.825 275.171H135.834ZM140.838 275V264.979H148.084V266.161H142.164V269.23H147.708V270.406H142.164V273.817H148.316V275H140.838ZM149.171 275L151.823 271.227L149.369 267.74H150.907L152.021 269.442C152.231 269.766 152.4 270.037 152.527 270.256C152.728 269.955 152.912 269.688 153.081 269.456L154.305 267.74H155.774L153.266 271.158L155.966 275H154.455L152.965 272.744L152.568 272.136L150.661 275H149.171ZM161.729 274.104C161.273 274.492 160.833 274.765 160.409 274.925C159.99 275.084 159.539 275.164 159.056 275.164C158.258 275.164 157.645 274.97 157.217 274.583C156.788 274.191 156.574 273.692 156.574 273.086C156.574 272.73 156.654 272.407 156.813 272.115C156.978 271.819 157.189 271.582 157.449 271.404C157.714 271.227 158.01 271.092 158.338 271.001C158.579 270.937 158.944 270.876 159.432 270.816C160.425 270.698 161.157 270.557 161.626 270.393C161.631 270.224 161.633 270.117 161.633 270.071C161.633 269.57 161.517 269.217 161.284 269.012C160.97 268.734 160.503 268.595 159.883 268.595C159.304 268.595 158.876 268.697 158.598 268.902C158.324 269.103 158.121 269.461 157.989 269.976L156.786 269.812C156.896 269.297 157.076 268.882 157.326 268.567C157.577 268.248 157.939 268.005 158.413 267.836C158.887 267.663 159.436 267.576 160.061 267.576C160.68 267.576 161.184 267.649 161.571 267.795C161.959 267.941 162.243 268.125 162.426 268.349C162.608 268.567 162.736 268.845 162.809 269.183C162.85 269.392 162.87 269.771 162.87 270.317V271.958C162.87 273.102 162.895 273.826 162.945 274.132C163 274.433 163.105 274.722 163.26 275H161.975C161.847 274.745 161.765 274.446 161.729 274.104ZM161.626 271.356C161.179 271.539 160.509 271.694 159.616 271.821C159.11 271.894 158.753 271.976 158.543 272.067C158.333 272.159 158.172 272.293 158.058 272.471C157.944 272.644 157.887 272.838 157.887 273.052C157.887 273.38 158.01 273.653 158.256 273.872C158.507 274.091 158.871 274.2 159.35 274.2C159.824 274.2 160.245 274.098 160.614 273.893C160.983 273.683 161.255 273.398 161.428 273.038C161.56 272.76 161.626 272.35 161.626 271.808V271.356ZM164.784 275V267.74H165.885V268.759C166.113 268.403 166.416 268.118 166.794 267.904C167.172 267.686 167.603 267.576 168.086 267.576C168.624 267.576 169.063 267.688 169.405 267.911C169.752 268.134 169.995 268.447 170.137 268.848C170.711 268 171.458 267.576 172.379 267.576C173.099 267.576 173.653 267.777 174.04 268.178C174.427 268.574 174.621 269.187 174.621 270.017V275H173.397V270.427C173.397 269.935 173.356 269.581 173.274 269.367C173.197 269.148 173.053 268.973 172.844 268.841C172.634 268.709 172.388 268.643 172.105 268.643C171.595 268.643 171.171 268.813 170.834 269.155C170.497 269.493 170.328 270.035 170.328 270.782V275H169.098V270.283C169.098 269.736 168.997 269.326 168.797 269.053C168.596 268.779 168.268 268.643 167.812 268.643C167.466 268.643 167.145 268.734 166.849 268.916C166.557 269.098 166.345 269.365 166.213 269.716C166.081 270.067 166.015 270.573 166.015 271.233V275H164.784ZM176.446 277.782V267.74H177.567V268.684C177.832 268.314 178.13 268.039 178.463 267.856C178.796 267.67 179.199 267.576 179.673 267.576C180.293 267.576 180.84 267.736 181.313 268.055C181.787 268.374 182.145 268.825 182.387 269.408C182.628 269.987 182.749 270.623 182.749 271.315C182.749 272.058 182.615 272.728 182.346 273.325C182.081 273.918 181.694 274.373 181.184 274.692C180.678 275.007 180.145 275.164 179.584 275.164C179.174 275.164 178.805 275.077 178.477 274.904C178.153 274.731 177.886 274.512 177.677 274.248V277.782H176.446ZM177.561 271.411C177.561 272.345 177.75 273.036 178.128 273.482C178.506 273.929 178.964 274.152 179.502 274.152C180.049 274.152 180.516 273.922 180.903 273.462C181.295 272.997 181.491 272.279 181.491 271.309C181.491 270.383 181.3 269.691 180.917 269.23C180.539 268.77 180.085 268.54 179.557 268.54C179.033 268.54 178.568 268.786 178.162 269.278C177.761 269.766 177.561 270.477 177.561 271.411ZM184.212 275V264.979H185.442V275H184.212ZM192.326 272.662L193.598 272.819C193.397 273.562 193.026 274.139 192.483 274.549C191.941 274.959 191.248 275.164 190.405 275.164C189.343 275.164 188.5 274.838 187.876 274.187C187.256 273.53 186.946 272.612 186.946 271.432C186.946 270.21 187.261 269.262 187.89 268.588C188.519 267.913 189.334 267.576 190.337 267.576C191.308 267.576 192.101 267.907 192.716 268.567C193.331 269.228 193.639 270.158 193.639 271.356C193.639 271.429 193.636 271.539 193.632 271.685H188.218C188.263 272.482 188.489 273.093 188.895 273.517C189.3 273.94 189.806 274.152 190.412 274.152C190.863 274.152 191.248 274.034 191.567 273.797C191.886 273.56 192.139 273.182 192.326 272.662ZM188.286 270.673H192.34C192.285 270.062 192.13 269.604 191.875 269.299C191.483 268.825 190.975 268.588 190.351 268.588C189.785 268.588 189.309 268.777 188.922 269.155C188.539 269.534 188.327 270.039 188.286 270.673Z" fill="#212121"/>
<g filter="url(#filter2_d_242_4993)">
<rect x="52" y="309" width="476" height="36" rx="2" stroke="#E52554" stroke-width="4" shape-rendering="crispEdges"/>
</g>
<g filter="url(#filter3_d_242_4993)">
<rect x="59" y="316" width="240" height="22" rx="3" fill="#E52554"/>
</g>
<defs>
<filter id="filter0_d_242_4993" x="46" y="99" width="454" height="28" filterUnits="userSpaceOnUse" color-interpolation-filters="sRGB">
<feFlood flood-opacity="0" result="BackgroundImageFix"/>
<feColorMatrix in="SourceAlpha" type="matrix" values="0 0 0 0 0 0 0 0 0 0 0 0 0 0 0 0 0 0 127 0" result="hardAlpha"/>
<feOffset dy="4"/>
<feGaussianBlur stdDeviation="2"/>
<feComposite in2="hardAlpha" operator="out"/>
<feColorMatrix type="matrix" values="0 0 0 0 0 0 0 0 0 0 0 0 0 0 0 0 0 0 0.2 0"/>
<feBlend mode="normal" in2="BackgroundImageFix" result="effect1_dropShadow_242_4993"/>
<feBlend mode="normal" in="SourceGraphic" in2="effect1_dropShadow_242_4993" result="shape"/>
</filter>
<filter id="filter1_d_242_4993" x="46" y="193" width="488" height="48" filterUnits="userSpaceOnUse" color-interpolation-filters="sRGB">
<feFlood flood-opacity="0" result="BackgroundImageFix"/>
<feColorMatrix in="SourceAlpha" type="matrix" values="0 0 0 0 0 0 0 0 0 0 0 0 0 0 0 0 0 0 127 0" result="hardAlpha"/>
<feOffset dy="4"/>
<feGaussianBlur stdDeviation="2"/>
<feComposite in2="hardAlpha" operator="out"/>
<feColorMatrix type="matrix" values="0 0 0 0 0 0 0 0 0 0 0 0 0 0 0 0 0 0 0.2 0"/>
<feBlend mode="normal" in2="BackgroundImageFix" result="effect1_dropShadow_242_4993"/>
<feBlend mode="normal" in="SourceGraphic" in2="effect1_dropShadow_242_4993" result="shape"/>
</filter>
<filter id="filter2_d_242_4993" x="46" y="307" width="488" height="48" filterUnits="userSpaceOnUse" color-interpolation-filters="sRGB">
<feFlood flood-opacity="0" result="BackgroundImageFix"/>
<feColorMatrix in="SourceAlpha" type="matrix" values="0 0 0 0 0 0 0 0 0 0 0 0 0 0 0 0 0 0 127 0" result="hardAlpha"/>
<feOffset dy="4"/>
<feGaussianBlur stdDeviation="2"/>
<feComposite in2="hardAlpha" operator="out"/>
<feColorMatrix type="matrix" values="0 0 0 0 0 0 0 0 0 0 0 0 0 0 0 0 0 0 0.2 0"/>
<feBlend mode="normal" in2="BackgroundImageFix" result="effect1_dropShadow_242_4993"/>
<feBlend mode="normal" in="SourceGraphic" in2="effect1_dropShadow_242_4993" result="shape"/>
</filter>
<filter id="filter3_d_242_4993" x="55" y="316" width="248" height="30" filterUnits="userSpaceOnUse" color-interpolation-filters="sRGB">
<feFlood flood-opacity="0" result="BackgroundImageFix"/>
<feColorMatrix in="SourceAlpha" type="matrix" values="0 0 0 0 0 0 0 0 0 0 0 0 0 0 0 0 0 0 127 0" result="hardAlpha"/>
<feOffset dy="4"/>
<feGaussianBlur stdDeviation="2"/>
<feComposite in2="hardAlpha" operator="out"/>
<feColorMatrix type="matrix" values="0 0 0 0 0 0 0 0 0 0 0 0 0 0 0 0 0 0 0.2 0"/>
<feBlend mode="normal" in2="BackgroundImageFix" result="effect1_dropShadow_242_4993"/>
<feBlend mode="normal" in="SourceGraphic" in2="effect1_dropShadow_242_4993" result="shape"/>
</filter>
</defs>
</svg>
