<svg width="428" height="753" viewBox="0 0 428 753" fill="none" xmlns="http://www.w3.org/2000/svg">
<g id="Star_Preview">
<g id="ColumnGroup">
<g id="Title">
<rect x="50" y="50" width="140" height="24" rx="4" fill="#FED70A"/>
<text id="MessageText" fill="#212121" xml:space="preserve" style="white-space: pre" font-family="Arial" font-size="14" letter-spacing="0em"><tspan x="58" y="66.8535">Star/Small/Unactive</tspan></text>
</g>
<g id="Star/Small/Unactive">
<g id="StarIcon" filter="url(#filter0_d_2_852)">
<path d="M58.9417 100.036C59.3872 98.6546 61.327 98.6546 61.7726 100.036L63.1973 104.455C63.3965 105.073 63.9679 105.491 64.6127 105.491H69.2232C70.6649 105.491 71.2643 107.35 70.098 108.204L66.368 110.935C65.8464 111.317 65.6281 111.994 65.8273 112.612L67.2521 117.03C67.6976 118.412 66.1282 119.561 64.9619 118.707L61.2319 115.976C60.7103 115.594 60.004 115.594 59.4824 115.976L55.7524 118.707C54.586 119.561 53.0167 118.412 53.4622 117.03L54.8869 112.612C55.0862 111.994 54.8679 111.317 54.3463 110.935L50.6163 108.204C49.45 107.35 50.0494 105.491 51.4911 105.491H56.1016C56.7463 105.491 57.3178 105.073 57.517 104.455L58.9417 100.036Z" fill="#E52554" fill-opacity="0.3" shape-rendering="crispEdges"/>
<path d="M61.2967 100.19L62.7214 104.608C62.9866 105.431 63.7488 105.991 64.6127 105.991H69.2232C70.1727 105.991 70.5859 107.227 69.8026 107.801L66.0726 110.531C65.3761 111.041 65.0865 111.943 65.3515 112.765L66.7762 117.184C67.0773 118.117 66.021 118.863 65.2572 118.303L61.5273 115.573C60.8298 115.062 59.8845 115.062 59.187 115.573L55.457 118.303C54.6933 118.863 53.637 118.117 53.9381 117.184L55.3628 112.765C55.6278 111.943 55.3382 111.041 54.6417 110.531L50.9117 107.801C50.1284 107.227 50.5416 105.991 51.4911 105.991H56.1016C56.9655 105.991 57.7277 105.431 57.9929 104.608L59.4176 100.19C59.7141 99.2701 61.0002 99.2701 61.2967 100.19Z" stroke="#E52554" stroke-opacity="0.5" shape-rendering="crispEdges"/>
</g>
</g>
<g id="Title_2">
<rect x="50" y="144" width="123" height="24" rx="4" fill="#FED70A"/>
<text id="MessageText_2" fill="#212121" xml:space="preserve" style="white-space: pre" font-family="Arial" font-size="14" letter-spacing="0em"><tspan x="58" y="160.854">Star/Small/Active</tspan></text>
</g>
<g id="Star/Small/Active">
<g id="StarIcon_2" filter="url(#filter1_d_2_852)">
<path d="M58.9417 194.036C59.3872 192.655 61.327 192.655 61.7726 194.036L63.1973 198.455C63.3965 199.073 63.9679 199.491 64.6127 199.491H69.2232C70.6649 199.491 71.2643 201.35 70.098 202.204L66.368 204.935C65.8464 205.317 65.6281 205.994 65.8273 206.612L67.2521 211.03C67.6976 212.412 66.1282 213.561 64.9619 212.707L61.2319 209.976C60.7103 209.594 60.004 209.594 59.4824 209.976L55.7524 212.707C54.586 213.561 53.0167 212.412 53.4622 211.03L54.8869 206.612C55.0862 205.994 54.8679 205.317 54.3463 204.935L50.6163 202.204C49.45 201.35 50.0494 199.491 51.4911 199.491H56.1016C56.7463 199.491 57.3178 199.073 57.517 198.455L58.9417 194.036Z" fill="#E52554"/>
</g>
</g>
<g id="Title_3">
<rect x="50" y="238" width="154" height="24" rx="4" fill="#FED70A"/>
<text id="MessageText_3" fill="#212121" xml:space="preserve" style="white-space: pre" font-family="Arial" font-size="14" letter-spacing="0em"><tspan x="58" y="254.854">Star/Medium/Unactive</tspan></text>
</g>
<g id="Star/Medium/Unactive">
<g id="StarIcon_3" filter="url(#filter2_d_2_852)">
<path d="M67.8835 289.073C68.7745 286.309 72.6541 286.309 73.5451 289.073L76.3945 297.91C76.793 299.145 77.9359 299.982 79.2254 299.982H88.4464C91.3298 299.982 92.5286 303.7 90.1959 305.408L82.736 310.87C81.6927 311.633 81.2562 312.987 81.6547 314.223L84.5041 323.06C85.3952 325.824 82.2565 328.121 79.9238 326.414L72.4638 320.952C71.4206 320.188 70.008 320.188 68.9647 320.952L61.5048 326.414C59.1721 328.121 56.0334 325.824 56.9244 323.06L59.7739 314.223C60.1724 312.987 59.7358 311.633 58.6926 310.87L51.2327 305.408C48.8999 303.7 50.0988 299.982 52.9822 299.982H62.2032C63.4927 299.982 64.6355 299.145 65.034 297.91L67.8835 289.073Z" fill="#E52554" fill-opacity="0.3" shape-rendering="crispEdges"/>
<path d="M72.5934 289.379L75.4428 298.216C75.9732 299.861 77.4977 300.982 79.2254 300.982H88.4464C90.3455 300.982 91.1719 303.454 89.6052 304.601L82.1452 310.063C80.7522 311.083 80.173 312.886 80.7029 314.53L83.5524 323.367C84.1547 325.235 82.0421 326.725 80.5145 325.607L73.0546 320.145C71.6596 319.124 69.769 319.124 68.374 320.145L60.9141 325.607C59.3865 326.725 57.2739 325.235 57.8762 323.367L60.7256 314.53C61.2556 312.886 60.6764 311.083 59.2833 310.063L51.8234 304.601C50.2567 303.454 51.0831 300.982 52.9822 300.982H62.2032C63.9309 300.982 65.4554 299.861 65.9858 298.216L68.8352 289.379C69.4282 287.54 72.0003 287.54 72.5934 289.379Z" stroke="#E52554" stroke-opacity="0.5" stroke-width="2" shape-rendering="crispEdges"/>
</g>
</g>
<g id="Title_4">
<rect x="50" y="352" width="138" height="24" rx="4" fill="#FED70A"/>
<text id="MessageText_4" fill="#212121" xml:space="preserve" style="white-space: pre" font-family="Arial" font-size="14" letter-spacing="0em"><tspan x="58" y="368.854">Star/Medium/Active</tspan></text>
</g>
<g id="Star/Medium/Active">
<g id="Star/Medium/Unactive_2">
<g id="StarIcon_4" filter="url(#filter3_d_2_852)">
<path d="M67.8835 403.073C68.7745 400.309 72.6541 400.309 73.5451 403.073L76.3945 411.91C76.793 413.145 77.9359 413.982 79.2254 413.982H88.4464C91.3298 413.982 92.5286 417.7 90.1959 419.408L82.736 424.87C81.6927 425.633 81.2562 426.987 81.6547 428.223L84.5041 437.06C85.3952 439.824 82.2565 442.121 79.9238 440.414L72.4638 434.952C71.4206 434.188 70.008 434.188 68.9647 434.952L61.5048 440.414C59.1721 442.121 56.0334 439.824 56.9244 437.06L59.7739 428.223C60.1724 426.987 59.7358 425.633 58.6926 424.87L51.2327 419.408C48.8999 417.7 50.0988 413.982 52.9822 413.982H62.2032C63.4927 413.982 64.6355 413.145 65.034 411.91L67.8835 403.073Z" fill="#E52554"/>
<path d="M72.5934 403.379L75.4428 412.216C75.9732 413.861 77.4977 414.982 79.2254 414.982H88.4464C90.3455 414.982 91.1719 417.454 89.6052 418.601L82.1452 424.063C80.7522 425.083 80.173 426.886 80.7029 428.53L83.5524 437.367C84.1547 439.235 82.0421 440.725 80.5145 439.607L73.0546 434.145C71.6596 433.124 69.769 433.124 68.374 434.145L60.9141 439.607C59.3865 440.725 57.2739 439.235 57.8762 437.367L60.7256 428.53C61.2556 426.886 60.6764 425.083 59.2833 424.063L51.8234 418.601C50.2567 417.454 51.0831 414.982 52.9822 414.982H62.2032C63.9309 414.982 65.4554 413.861 65.9858 412.216L68.8352 403.379C69.4282 401.54 72.0003 401.54 72.5934 403.379Z" stroke="#E52554" stroke-opacity="0.5" stroke-width="2"/>
</g>
</g>
</g>
<g id="Title_5">
<rect x="50" y="466" width="140" height="24" rx="4" fill="#FED70A"/>
<text id="MessageText_5" fill="#212121" xml:space="preserve" style="white-space: pre" font-family="Arial" font-size="14" letter-spacing="0em"><tspan x="58" y="482.854">Star/Large/Unactive</tspan></text>
</g>
<g id="Star/Large/Unactive">
<g id="Icon/Star">
<g id="StarIcon_5" filter="url(#filter4_d_2_852)">
<path d="M76.0369 517.902C77.2843 514.033 82.7157 514.033 83.9632 517.902L87.9524 530.273C88.5102 532.004 90.1102 533.175 91.9155 533.175H104.825C108.862 533.175 110.54 538.38 107.274 540.771L96.8304 548.418C95.3698 549.487 94.7587 551.382 95.3166 553.112L99.3058 565.484C100.553 569.353 96.1591 572.57 92.8933 570.179L82.4494 562.533C80.9888 561.463 79.0112 561.463 77.5506 562.533L67.1067 570.179C63.8409 572.57 59.4468 569.353 60.6942 565.484L64.6834 553.112C65.2413 551.382 64.6302 549.487 63.1696 548.418L52.7257 540.771C49.4599 538.38 51.1383 533.175 55.1751 533.175H68.0845C69.8898 533.175 71.4898 532.004 72.0476 530.273L76.0369 517.902Z" fill="#E52554" fill-opacity="0.3" shape-rendering="crispEdges"/>
<path d="M83.0114 518.208L87.0006 530.58C87.6904 532.72 89.672 534.175 91.9155 534.175H104.825C107.877 534.175 109.183 538.134 106.684 539.964L96.2396 547.611C94.4293 548.936 93.6755 551.281 94.3648 553.419L98.354 565.791C99.3127 568.764 95.9447 571.174 93.484 569.372L83.0401 561.726C81.2278 560.399 78.7722 560.399 76.9599 561.726L66.516 569.372C64.0554 571.174 60.6873 568.764 61.646 565.791L65.6352 553.419C66.3246 551.281 65.5707 548.936 63.7604 547.611L53.3165 539.964C50.8167 538.134 52.1226 534.175 55.1751 534.175H68.0845C70.328 534.175 72.3096 532.72 72.9994 530.58L76.9886 518.208C77.938 515.264 82.062 515.264 83.0114 518.208Z" stroke="#E52554" stroke-opacity="0.5" stroke-width="2" shape-rendering="crispEdges"/>
</g>
</g>
</g>
<g id="Title_6">
<rect x="50" y="597" width="124" height="24" rx="4" fill="#FED70A"/>
<text id="MessageText_6" fill="#212121" xml:space="preserve" style="white-space: pre" font-family="Arial" font-size="14" letter-spacing="0em"><tspan x="58" y="613.854">Star/Large/Active</tspan></text>
</g>
<g id="Star/Large/Active">
<g id="Star/Large/Unactive_2">
<g id="Icon/Star_2">
<g id="StarIcon_6" filter="url(#filter5_d_2_852)">
<path d="M77.0369 647.902C78.2843 644.033 83.7157 644.033 84.9632 647.902L88.9524 660.273C89.5102 662.004 91.1102 663.175 92.9155 663.175H105.825C109.862 663.175 111.54 668.38 108.274 670.771L97.8304 678.418C96.3698 679.487 95.7587 681.382 96.3166 683.112L100.306 695.484C101.553 699.353 97.1591 702.57 93.8933 700.179L83.4494 692.533C81.9888 691.463 80.0112 691.463 78.5506 692.533L68.1067 700.179C64.8409 702.57 60.4468 699.353 61.6942 695.484L65.6834 683.112C66.2413 681.382 65.6302 679.487 64.1696 678.418L53.7257 670.771C50.4599 668.38 52.1383 663.175 56.1751 663.175H69.0845C70.8898 663.175 72.4898 662.004 73.0476 660.273L77.0369 647.902Z" fill="#E52554"/>
<path d="M84.0114 648.208L88.0006 660.58C88.6904 662.72 90.672 664.175 92.9155 664.175H105.825C108.877 664.175 110.183 668.134 107.684 669.964L97.2396 677.611C95.4293 678.936 94.6755 681.281 95.3648 683.419L99.354 695.791C100.313 698.764 96.9447 701.174 94.484 699.372L84.0401 691.726C82.2278 690.399 79.7722 690.399 77.9599 691.726L67.516 699.372C65.0554 701.174 61.6873 698.764 62.646 695.791L66.6352 683.419C67.3246 681.281 66.5707 678.936 64.7604 677.611L54.3165 669.964C51.8167 668.134 53.1226 664.175 56.1751 664.175H69.0845C71.328 664.175 73.3096 662.72 73.9994 660.58L77.9886 648.208C78.938 645.264 83.062 645.264 84.0114 648.208Z" stroke="#E52554" stroke-opacity="0.5" stroke-width="2"/>
</g>
</g>
</g>
</g>
</g>
<g id="ColumnGroup_2">
<g id="Title_7">
<rect x="254" y="50" width="124" height="24" rx="4" fill="#FED70A"/>
<text id="MessageText_7" fill="#212121" xml:space="preserve" style="white-space: pre" font-family="Arial" font-size="14" letter-spacing="0em"><tspan x="262" y="66.8535">Star/Small/Group</tspan></text>
</g>
<g id="StarSmallGroup" clip-path="url(#clip0_2_852)">
<g id="Star/Small/Group/0-3">
<g id="Star/Small/Unactive_2">
<g id="StarIcon_7" filter="url(#filter6_d_2_852)">
<path d="M262.942 100.036C263.387 98.6546 265.327 98.6546 265.773 100.036L267.197 104.455C267.397 105.073 267.968 105.491 268.613 105.491H273.223C274.665 105.491 275.264 107.35 274.098 108.204L270.368 110.935C269.846 111.317 269.628 111.994 269.827 112.612L271.252 117.03C271.698 118.412 270.128 119.561 268.962 118.707L265.232 115.976C264.71 115.594 264.004 115.594 263.482 115.976L259.752 118.707C258.586 119.561 257.017 118.412 257.462 117.03L258.887 112.612C259.086 111.994 258.868 111.317 258.346 110.935L254.616 108.204C253.45 107.35 254.049 105.491 255.491 105.491H260.102C260.746 105.491 261.318 105.073 261.517 104.455L262.942 100.036Z" fill="#E52554" fill-opacity="0.3" shape-rendering="crispEdges"/>
<path d="M265.297 100.19L266.721 104.608C266.987 105.431 267.749 105.991 268.613 105.991H273.223C274.173 105.991 274.586 107.227 273.803 107.801L270.073 110.531C269.376 111.041 269.086 111.943 269.351 112.765L270.776 117.184C271.077 118.117 270.021 118.863 269.257 118.303L265.527 115.573C264.83 115.062 263.884 115.062 263.187 115.573L259.457 118.303C258.693 118.863 257.637 118.117 257.938 117.184L259.363 112.765C259.628 111.943 259.338 111.041 258.642 110.531L254.912 107.801C254.128 107.227 254.542 105.991 255.491 105.991H260.102C260.965 105.991 261.728 105.431 261.993 104.608L263.418 100.19C263.714 99.2701 265 99.2701 265.297 100.19Z" stroke="#E52554" stroke-opacity="0.5" shape-rendering="crispEdges"/>
</g>
</g>
<g id="Star/Small/Unactive_3">
<g id="StarIcon_8" filter="url(#filter7_d_2_852)">
<path d="M285.942 100.036C286.387 98.6546 288.327 98.6546 288.773 100.036L290.197 104.455C290.397 105.073 290.968 105.491 291.613 105.491H296.223C297.665 105.491 298.264 107.35 297.098 108.204L293.368 110.935C292.846 111.317 292.628 111.994 292.827 112.612L294.252 117.03C294.698 118.412 293.128 119.561 291.962 118.707L288.232 115.976C287.71 115.594 287.004 115.594 286.482 115.976L282.752 118.707C281.586 119.561 280.017 118.412 280.462 117.03L281.887 112.612C282.086 111.994 281.868 111.317 281.346 110.935L277.616 108.204C276.45 107.35 277.049 105.491 278.491 105.491H283.102C283.746 105.491 284.318 105.073 284.517 104.455L285.942 100.036Z" fill="#E52554" fill-opacity="0.3" shape-rendering="crispEdges"/>
<path d="M288.297 100.19L289.721 104.608C289.987 105.431 290.749 105.991 291.613 105.991H296.223C297.173 105.991 297.586 107.227 296.803 107.801L293.073 110.531C292.376 111.041 292.086 111.943 292.351 112.765L293.776 117.184C294.077 118.117 293.021 118.863 292.257 118.303L288.527 115.573C287.83 115.062 286.884 115.062 286.187 115.573L282.457 118.303C281.693 118.863 280.637 118.117 280.938 117.184L282.363 112.765C282.628 111.943 282.338 111.041 281.642 110.531L277.912 107.801C277.128 107.227 277.542 105.991 278.491 105.991H283.102C283.965 105.991 284.728 105.431 284.993 104.608L286.418 100.19C286.714 99.2701 288 99.2701 288.297 100.19Z" stroke="#E52554" stroke-opacity="0.5" shape-rendering="crispEdges"/>
</g>
</g>
<g id="Star/Small/Unactive_4">
<g id="StarIcon_9" filter="url(#filter8_d_2_852)">
<path d="M308.942 100.036C309.387 98.6546 311.327 98.6546 311.773 100.036L313.197 104.455C313.397 105.073 313.968 105.491 314.613 105.491H319.223C320.665 105.491 321.264 107.35 320.098 108.204L316.368 110.935C315.846 111.317 315.628 111.994 315.827 112.612L317.252 117.03C317.698 118.412 316.128 119.561 314.962 118.707L311.232 115.976C310.71 115.594 310.004 115.594 309.482 115.976L305.752 118.707C304.586 119.561 303.017 118.412 303.462 117.03L304.887 112.612C305.086 111.994 304.868 111.317 304.346 110.935L300.616 108.204C299.45 107.35 300.049 105.491 301.491 105.491H306.102C306.746 105.491 307.318 105.073 307.517 104.455L308.942 100.036Z" fill="#E52554" fill-opacity="0.3" shape-rendering="crispEdges"/>
<path d="M311.297 100.19L312.721 104.608C312.987 105.431 313.749 105.991 314.613 105.991H319.223C320.173 105.991 320.586 107.227 319.803 107.801L316.073 110.531C315.376 111.041 315.086 111.943 315.351 112.765L316.776 117.184C317.077 118.117 316.021 118.863 315.257 118.303L311.527 115.573C310.83 115.062 309.884 115.062 309.187 115.573L305.457 118.303C304.693 118.863 303.637 118.117 303.938 117.184L305.363 112.765C305.628 111.943 305.338 111.041 304.642 110.531L300.912 107.801C300.128 107.227 300.542 105.991 301.491 105.991H306.102C306.965 105.991 307.728 105.431 307.993 104.608L309.418 100.19C309.714 99.2701 311 99.2701 311.297 100.19Z" stroke="#E52554" stroke-opacity="0.5" shape-rendering="crispEdges"/>
</g>
</g>
</g>
<g id="Star/Small/Group/3-3">
<g id="Star/Small/Active_2">
<g id="StarIcon_10" filter="url(#filter9_d_2_852)">
<path d="M262.942 140.036C263.387 138.655 265.327 138.655 265.773 140.036L267.197 144.455C267.397 145.073 267.968 145.491 268.613 145.491H273.223C274.665 145.491 275.264 147.35 274.098 148.204L270.368 150.935C269.846 151.317 269.628 151.994 269.827 152.612L271.252 157.03C271.698 158.412 270.128 159.561 268.962 158.707L265.232 155.976C264.71 155.594 264.004 155.594 263.482 155.976L259.752 158.707C258.586 159.561 257.017 158.412 257.462 157.03L258.887 152.612C259.086 151.994 258.868 151.317 258.346 150.935L254.616 148.204C253.45 147.35 254.049 145.491 255.491 145.491H260.102C260.746 145.491 261.318 145.073 261.517 144.455L262.942 140.036Z" fill="#E52554"/>
</g>
</g>
<g id="Star/Small/Active_3">
<g id="StarIcon_11" filter="url(#filter10_d_2_852)">
<path d="M285.942 140.036C286.387 138.655 288.327 138.655 288.773 140.036L290.197 144.455C290.397 145.073 290.968 145.491 291.613 145.491H296.223C297.665 145.491 298.264 147.35 297.098 148.204L293.368 150.935C292.846 151.317 292.628 151.994 292.827 152.612L294.252 157.03C294.698 158.412 293.128 159.561 291.962 158.707L288.232 155.976C287.71 155.594 287.004 155.594 286.482 155.976L282.752 158.707C281.586 159.561 280.017 158.412 280.462 157.03L281.887 152.612C282.086 151.994 281.868 151.317 281.346 150.935L277.616 148.204C276.45 147.35 277.049 145.491 278.491 145.491H283.102C283.746 145.491 284.318 145.073 284.517 144.455L285.942 140.036Z" fill="#E52554"/>
</g>
</g>
<g id="Star/Small/Active_4">
<g id="StarIcon_12" filter="url(#filter11_d_2_852)">
<path d="M308.942 140.036C309.387 138.655 311.327 138.655 311.773 140.036L313.197 144.455C313.397 145.073 313.968 145.491 314.613 145.491H319.223C320.665 145.491 321.264 147.35 320.098 148.204L316.368 150.935C315.846 151.317 315.628 151.994 315.827 152.612L317.252 157.03C317.698 158.412 316.128 159.561 314.962 158.707L311.232 155.976C310.71 155.594 310.004 155.594 309.482 155.976L305.752 158.707C304.586 159.561 303.017 158.412 303.462 157.03L304.887 152.612C305.086 151.994 304.868 151.317 304.346 150.935L300.616 148.204C299.45 147.35 300.049 145.491 301.491 145.491H306.102C306.746 145.491 307.318 145.073 307.517 144.455L308.942 140.036Z" fill="#E52554"/>
</g>
</g>
</g>
<g id="Star/Small/Group/2-3">
<g id="Star/Small/Group/0-3_2">
<g id="Star/Small/Unactive_5">
<g id="StarIcon_13" filter="url(#filter12_d_2_852)">
<path d="M262.942 180.036C263.387 178.655 265.327 178.655 265.773 180.036L267.197 184.455C267.397 185.073 267.968 185.491 268.613 185.491H273.223C274.665 185.491 275.264 187.35 274.098 188.204L270.368 190.935C269.846 191.317 269.628 191.994 269.827 192.612L271.252 197.03C271.698 198.412 270.128 199.561 268.962 198.707L265.232 195.976C264.71 195.594 264.004 195.594 263.482 195.976L259.752 198.707C258.586 199.561 257.017 198.412 257.462 197.03L258.887 192.612C259.086 191.994 258.868 191.317 258.346 190.935L254.616 188.204C253.45 187.35 254.049 185.491 255.491 185.491H260.102C260.746 185.491 261.318 185.073 261.517 184.455L262.942 180.036Z" fill="#E52554" fill-opacity="0.3" shape-rendering="crispEdges"/>
<path d="M265.297 180.19L266.721 184.608C266.987 185.431 267.749 185.991 268.613 185.991H273.223C274.173 185.991 274.586 187.227 273.803 187.801L270.073 190.531C269.376 191.041 269.086 191.943 269.351 192.765L270.776 197.184C271.077 198.117 270.021 198.863 269.257 198.303L265.527 195.573C264.83 195.062 263.884 195.062 263.187 195.573L259.457 198.303C258.693 198.863 257.637 198.117 257.938 197.184L259.363 192.765C259.628 191.943 259.338 191.041 258.642 190.531L254.912 187.801C254.128 187.227 254.542 185.991 255.491 185.991H260.102C260.965 185.991 261.728 185.431 261.993 184.608L263.418 180.19C263.714 179.27 265 179.27 265.297 180.19Z" stroke="#E52554" stroke-opacity="0.5" shape-rendering="crispEdges"/>
</g>
</g>
<g id="Star/Small/Unactive_6">
<g id="StarIcon_14" filter="url(#filter13_d_2_852)">
<path d="M285.942 180.036C286.387 178.655 288.327 178.655 288.773 180.036L290.197 184.455C290.397 185.073 290.968 185.491 291.613 185.491H296.223C297.665 185.491 298.264 187.35 297.098 188.204L293.368 190.935C292.846 191.317 292.628 191.994 292.827 192.612L294.252 197.03C294.698 198.412 293.128 199.561 291.962 198.707L288.232 195.976C287.71 195.594 287.004 195.594 286.482 195.976L282.752 198.707C281.586 199.561 280.017 198.412 280.462 197.03L281.887 192.612C282.086 191.994 281.868 191.317 281.346 190.935L277.616 188.204C276.45 187.35 277.049 185.491 278.491 185.491H283.102C283.746 185.491 284.318 185.073 284.517 184.455L285.942 180.036Z" fill="#E52554" fill-opacity="0.3" shape-rendering="crispEdges"/>
<path d="M288.297 180.19L289.721 184.608C289.987 185.431 290.749 185.991 291.613 185.991H296.223C297.173 185.991 297.586 187.227 296.803 187.801L293.073 190.531C292.376 191.041 292.086 191.943 292.351 192.765L293.776 197.184C294.077 198.117 293.021 198.863 292.257 198.303L288.527 195.573C287.83 195.062 286.884 195.062 286.187 195.573L282.457 198.303C281.693 198.863 280.637 198.117 280.938 197.184L282.363 192.765C282.628 191.943 282.338 191.041 281.642 190.531L277.912 187.801C277.128 187.227 277.542 185.991 278.491 185.991H283.102C283.965 185.991 284.728 185.431 284.993 184.608L286.418 180.19C286.714 179.27 288 179.27 288.297 180.19Z" stroke="#E52554" stroke-opacity="0.5" shape-rendering="crispEdges"/>
</g>
</g>
<g id="Star/Small/Unactive_7">
<g id="StarIcon_15" filter="url(#filter14_d_2_852)">
<path d="M308.942 180.036C309.387 178.655 311.327 178.655 311.773 180.036L313.197 184.455C313.397 185.073 313.968 185.491 314.613 185.491H319.223C320.665 185.491 321.264 187.35 320.098 188.204L316.368 190.935C315.846 191.317 315.628 191.994 315.827 192.612L317.252 197.03C317.698 198.412 316.128 199.561 314.962 198.707L311.232 195.976C310.71 195.594 310.004 195.594 309.482 195.976L305.752 198.707C304.586 199.561 303.017 198.412 303.462 197.03L304.887 192.612C305.086 191.994 304.868 191.317 304.346 190.935L300.616 188.204C299.45 187.35 300.049 185.491 301.491 185.491H306.102C306.746 185.491 307.318 185.073 307.517 184.455L308.942 180.036Z" fill="#E52554" fill-opacity="0.3" shape-rendering="crispEdges"/>
<path d="M311.297 180.19L312.721 184.608C312.987 185.431 313.749 185.991 314.613 185.991H319.223C320.173 185.991 320.586 187.227 319.803 187.801L316.073 190.531C315.376 191.041 315.086 191.943 315.351 192.765L316.776 197.184C317.077 198.117 316.021 198.863 315.257 198.303L311.527 195.573C310.83 195.062 309.884 195.062 309.187 195.573L305.457 198.303C304.693 198.863 303.637 198.117 303.938 197.184L305.363 192.765C305.628 191.943 305.338 191.041 304.642 190.531L300.912 187.801C300.128 187.227 300.542 185.991 301.491 185.991H306.102C306.965 185.991 307.728 185.431 307.993 184.608L309.418 180.19C309.714 179.27 311 179.27 311.297 180.19Z" stroke="#E52554" stroke-opacity="0.5" shape-rendering="crispEdges"/>
</g>
</g>
</g>
<g id="Star/Small/Active_5">
<g id="StarIcon_16" filter="url(#filter15_d_2_852)">
<path d="M262.942 180.036C263.387 178.655 265.327 178.655 265.773 180.036L267.197 184.455C267.397 185.073 267.968 185.491 268.613 185.491H273.223C274.665 185.491 275.264 187.35 274.098 188.204L270.368 190.935C269.846 191.317 269.628 191.994 269.827 192.612L271.252 197.03C271.698 198.412 270.128 199.561 268.962 198.707L265.232 195.976C264.71 195.594 264.004 195.594 263.482 195.976L259.752 198.707C258.586 199.561 257.017 198.412 257.462 197.03L258.887 192.612C259.086 191.994 258.868 191.317 258.346 190.935L254.616 188.204C253.45 187.35 254.049 185.491 255.491 185.491H260.102C260.746 185.491 261.318 185.073 261.517 184.455L262.942 180.036Z" fill="#E52554"/>
</g>
</g>
<g id="Star/Small/Active_6">
<g id="StarIcon_17" filter="url(#filter16_d_2_852)">
<path d="M285.942 180.036C286.387 178.655 288.327 178.655 288.773 180.036L290.197 184.455C290.397 185.073 290.968 185.491 291.613 185.491H296.223C297.665 185.491 298.264 187.35 297.098 188.204L293.368 190.935C292.846 191.317 292.628 191.994 292.827 192.612L294.252 197.03C294.698 198.412 293.128 199.561 291.962 198.707L288.232 195.976C287.71 195.594 287.004 195.594 286.482 195.976L282.752 198.707C281.586 199.561 280.017 198.412 280.462 197.03L281.887 192.612C282.086 191.994 281.868 191.317 281.346 190.935L277.616 188.204C276.45 187.35 277.049 185.491 278.491 185.491H283.102C283.746 185.491 284.318 185.073 284.517 184.455L285.942 180.036Z" fill="#E52554"/>
</g>
</g>
</g>
<g id="Star/Small/Group/1-3">
<g id="Star/Small/Group/0-3_3">
<g id="Star/Small/Unactive_8">
<g id="StarIcon_18" filter="url(#filter17_d_2_852)">
<path d="M262.942 220.036C263.387 218.655 265.327 218.655 265.773 220.036L267.197 224.455C267.397 225.073 267.968 225.491 268.613 225.491H273.223C274.665 225.491 275.264 227.35 274.098 228.204L270.368 230.935C269.846 231.317 269.628 231.994 269.827 232.612L271.252 237.03C271.698 238.412 270.128 239.561 268.962 238.707L265.232 235.976C264.71 235.594 264.004 235.594 263.482 235.976L259.752 238.707C258.586 239.561 257.017 238.412 257.462 237.03L258.887 232.612C259.086 231.994 258.868 231.317 258.346 230.935L254.616 228.204C253.45 227.35 254.049 225.491 255.491 225.491H260.102C260.746 225.491 261.318 225.073 261.517 224.455L262.942 220.036Z" fill="#E52554" fill-opacity="0.3" shape-rendering="crispEdges"/>
<path d="M265.297 220.19L266.721 224.608C266.987 225.431 267.749 225.991 268.613 225.991H273.223C274.173 225.991 274.586 227.227 273.803 227.801L270.073 230.531C269.376 231.041 269.086 231.943 269.351 232.765L270.776 237.184C271.077 238.117 270.021 238.863 269.257 238.303L265.527 235.573C264.83 235.062 263.884 235.062 263.187 235.573L259.457 238.303C258.693 238.863 257.637 238.117 257.938 237.184L259.363 232.765C259.628 231.943 259.338 231.041 258.642 230.531L254.912 227.801C254.128 227.227 254.542 225.991 255.491 225.991H260.102C260.965 225.991 261.728 225.431 261.993 224.608L263.418 220.19C263.714 219.27 265 219.27 265.297 220.19Z" stroke="#E52554" stroke-opacity="0.5" shape-rendering="crispEdges"/>
</g>
</g>
<g id="Star/Small/Unactive_9">
<g id="StarIcon_19" filter="url(#filter18_d_2_852)">
<path d="M285.942 220.036C286.387 218.655 288.327 218.655 288.773 220.036L290.197 224.455C290.397 225.073 290.968 225.491 291.613 225.491H296.223C297.665 225.491 298.264 227.35 297.098 228.204L293.368 230.935C292.846 231.317 292.628 231.994 292.827 232.612L294.252 237.03C294.698 238.412 293.128 239.561 291.962 238.707L288.232 235.976C287.71 235.594 287.004 235.594 286.482 235.976L282.752 238.707C281.586 239.561 280.017 238.412 280.462 237.03L281.887 232.612C282.086 231.994 281.868 231.317 281.346 230.935L277.616 228.204C276.45 227.35 277.049 225.491 278.491 225.491H283.102C283.746 225.491 284.318 225.073 284.517 224.455L285.942 220.036Z" fill="#E52554" fill-opacity="0.3" shape-rendering="crispEdges"/>
<path d="M288.297 220.19L289.721 224.608C289.987 225.431 290.749 225.991 291.613 225.991H296.223C297.173 225.991 297.586 227.227 296.803 227.801L293.073 230.531C292.376 231.041 292.086 231.943 292.351 232.765L293.776 237.184C294.077 238.117 293.021 238.863 292.257 238.303L288.527 235.573C287.83 235.062 286.884 235.062 286.187 235.573L282.457 238.303C281.693 238.863 280.637 238.117 280.938 237.184L282.363 232.765C282.628 231.943 282.338 231.041 281.642 230.531L277.912 227.801C277.128 227.227 277.542 225.991 278.491 225.991H283.102C283.965 225.991 284.728 225.431 284.993 224.608L286.418 220.19C286.714 219.27 288 219.27 288.297 220.19Z" stroke="#E52554" stroke-opacity="0.5" shape-rendering="crispEdges"/>
</g>
</g>
<g id="Star/Small/Unactive_10">
<g id="StarIcon_20" filter="url(#filter19_d_2_852)">
<path d="M308.942 220.036C309.387 218.655 311.327 218.655 311.773 220.036L313.197 224.455C313.397 225.073 313.968 225.491 314.613 225.491H319.223C320.665 225.491 321.264 227.35 320.098 228.204L316.368 230.935C315.846 231.317 315.628 231.994 315.827 232.612L317.252 237.03C317.698 238.412 316.128 239.561 314.962 238.707L311.232 235.976C310.71 235.594 310.004 235.594 309.482 235.976L305.752 238.707C304.586 239.561 303.017 238.412 303.462 237.03L304.887 232.612C305.086 231.994 304.868 231.317 304.346 230.935L300.616 228.204C299.45 227.35 300.049 225.491 301.491 225.491H306.102C306.746 225.491 307.318 225.073 307.517 224.455L308.942 220.036Z" fill="#E52554" fill-opacity="0.3" shape-rendering="crispEdges"/>
<path d="M311.297 220.19L312.721 224.608C312.987 225.431 313.749 225.991 314.613 225.991H319.223C320.173 225.991 320.586 227.227 319.803 227.801L316.073 230.531C315.376 231.041 315.086 231.943 315.351 232.765L316.776 237.184C317.077 238.117 316.021 238.863 315.257 238.303L311.527 235.573C310.83 235.062 309.884 235.062 309.187 235.573L305.457 238.303C304.693 238.863 303.637 238.117 303.938 237.184L305.363 232.765C305.628 231.943 305.338 231.041 304.642 230.531L300.912 227.801C300.128 227.227 300.542 225.991 301.491 225.991H306.102C306.965 225.991 307.728 225.431 307.993 224.608L309.418 220.19C309.714 219.27 311 219.27 311.297 220.19Z" stroke="#E52554" stroke-opacity="0.5" shape-rendering="crispEdges"/>
</g>
</g>
</g>
<g id="Star/Small/Active_7">
<g id="StarIcon_21" filter="url(#filter20_d_2_852)">
<path d="M262.942 220.036C263.387 218.655 265.327 218.655 265.773 220.036L267.197 224.455C267.397 225.073 267.968 225.491 268.613 225.491H273.223C274.665 225.491 275.264 227.35 274.098 228.204L270.368 230.935C269.846 231.317 269.628 231.994 269.827 232.612L271.252 237.03C271.698 238.412 270.128 239.561 268.962 238.707L265.232 235.976C264.71 235.594 264.004 235.594 263.482 235.976L259.752 238.707C258.586 239.561 257.017 238.412 257.462 237.03L258.887 232.612C259.086 231.994 258.868 231.317 258.346 230.935L254.616 228.204C253.45 227.35 254.049 225.491 255.491 225.491H260.102C260.746 225.491 261.318 225.073 261.517 224.455L262.942 220.036Z" fill="#E52554"/>
</g>
</g>
</g>
</g>
</g>
</g>
<defs>
<filter id="filter0_d_2_852" x="46" y="99" width="28.7144" height="28" filterUnits="userSpaceOnUse" color-interpolation-filters="sRGB">
<feFlood flood-opacity="0" result="BackgroundImageFix"/>
<feColorMatrix in="SourceAlpha" type="matrix" values="0 0 0 0 0 0 0 0 0 0 0 0 0 0 0 0 0 0 127 0" result="hardAlpha"/>
<feOffset dy="4"/>
<feGaussianBlur stdDeviation="2"/>
<feComposite in2="hardAlpha" operator="out"/>
<feColorMatrix type="matrix" values="0 0 0 0 0 0 0 0 0 0 0 0 0 0 0 0 0 0 0.2 0"/>
<feBlend mode="normal" in2="BackgroundImageFix" result="effect1_dropShadow_2_852"/>
<feBlend mode="normal" in="SourceGraphic" in2="effect1_dropShadow_2_852" result="shape"/>
</filter>
<filter id="filter1_d_2_852" x="46" y="193" width="28.7144" height="28" filterUnits="userSpaceOnUse" color-interpolation-filters="sRGB">
<feFlood flood-opacity="0" result="BackgroundImageFix"/>
<feColorMatrix in="SourceAlpha" type="matrix" values="0 0 0 0 0 0 0 0 0 0 0 0 0 0 0 0 0 0 127 0" result="hardAlpha"/>
<feOffset dy="4"/>
<feGaussianBlur stdDeviation="2"/>
<feComposite in2="hardAlpha" operator="out"/>
<feColorMatrix type="matrix" values="0 0 0 0 0 0 0 0 0 0 0 0 0 0 0 0 0 0 0.2 0"/>
<feBlend mode="normal" in2="BackgroundImageFix" result="effect1_dropShadow_2_852"/>
<feBlend mode="normal" in="SourceGraphic" in2="effect1_dropShadow_2_852" result="shape"/>
</filter>
<filter id="filter2_d_2_852" x="46" y="287" width="49.4287" height="48" filterUnits="userSpaceOnUse" color-interpolation-filters="sRGB">
<feFlood flood-opacity="0" result="BackgroundImageFix"/>
<feColorMatrix in="SourceAlpha" type="matrix" values="0 0 0 0 0 0 0 0 0 0 0 0 0 0 0 0 0 0 127 0" result="hardAlpha"/>
<feOffset dy="4"/>
<feGaussianBlur stdDeviation="2"/>
<feComposite in2="hardAlpha" operator="out"/>
<feColorMatrix type="matrix" values="0 0 0 0 0 0 0 0 0 0 0 0 0 0 0 0 0 0 0.2 0"/>
<feBlend mode="normal" in2="BackgroundImageFix" result="effect1_dropShadow_2_852"/>
<feBlend mode="normal" in="SourceGraphic" in2="effect1_dropShadow_2_852" result="shape"/>
</filter>
<filter id="filter3_d_2_852" x="46" y="401" width="49.4287" height="48" filterUnits="userSpaceOnUse" color-interpolation-filters="sRGB">
<feFlood flood-opacity="0" result="BackgroundImageFix"/>
<feColorMatrix in="SourceAlpha" type="matrix" values="0 0 0 0 0 0 0 0 0 0 0 0 0 0 0 0 0 0 127 0" result="hardAlpha"/>
<feOffset dy="4"/>
<feGaussianBlur stdDeviation="2"/>
<feComposite in2="hardAlpha" operator="out"/>
<feColorMatrix type="matrix" values="0 0 0 0 0 0 0 0 0 0 0 0 0 0 0 0 0 0 0.2 0"/>
<feBlend mode="normal" in2="BackgroundImageFix" result="effect1_dropShadow_2_852"/>
<feBlend mode="normal" in="SourceGraphic" in2="effect1_dropShadow_2_852" result="shape"/>
</filter>
<filter id="filter4_d_2_852" x="47" y="515" width="66" height="64" filterUnits="userSpaceOnUse" color-interpolation-filters="sRGB">
<feFlood flood-opacity="0" result="BackgroundImageFix"/>
<feColorMatrix in="SourceAlpha" type="matrix" values="0 0 0 0 0 0 0 0 0 0 0 0 0 0 0 0 0 0 127 0" result="hardAlpha"/>
<feOffset dy="4"/>
<feGaussianBlur stdDeviation="2"/>
<feComposite in2="hardAlpha" operator="out"/>
<feColorMatrix type="matrix" values="0 0 0 0 0 0 0 0 0 0 0 0 0 0 0 0 0 0 0.2 0"/>
<feBlend mode="normal" in2="BackgroundImageFix" result="effect1_dropShadow_2_852"/>
<feBlend mode="normal" in="SourceGraphic" in2="effect1_dropShadow_2_852" result="shape"/>
</filter>
<filter id="filter5_d_2_852" x="48" y="645" width="66" height="64" filterUnits="userSpaceOnUse" color-interpolation-filters="sRGB">
<feFlood flood-opacity="0" result="BackgroundImageFix"/>
<feColorMatrix in="SourceAlpha" type="matrix" values="0 0 0 0 0 0 0 0 0 0 0 0 0 0 0 0 0 0 127 0" result="hardAlpha"/>
<feOffset dy="4"/>
<feGaussianBlur stdDeviation="2"/>
<feComposite in2="hardAlpha" operator="out"/>
<feColorMatrix type="matrix" values="0 0 0 0 0 0 0 0 0 0 0 0 0 0 0 0 0 0 0.2 0"/>
<feBlend mode="normal" in2="BackgroundImageFix" result="effect1_dropShadow_2_852"/>
<feBlend mode="normal" in="SourceGraphic" in2="effect1_dropShadow_2_852" result="shape"/>
</filter>
<filter id="filter6_d_2_852" x="250" y="99" width="28.7144" height="28" filterUnits="userSpaceOnUse" color-interpolation-filters="sRGB">
<feFlood flood-opacity="0" result="BackgroundImageFix"/>
<feColorMatrix in="SourceAlpha" type="matrix" values="0 0 0 0 0 0 0 0 0 0 0 0 0 0 0 0 0 0 127 0" result="hardAlpha"/>
<feOffset dy="4"/>
<feGaussianBlur stdDeviation="2"/>
<feComposite in2="hardAlpha" operator="out"/>
<feColorMatrix type="matrix" values="0 0 0 0 0 0 0 0 0 0 0 0 0 0 0 0 0 0 0.2 0"/>
<feBlend mode="normal" in2="BackgroundImageFix" result="effect1_dropShadow_2_852"/>
<feBlend mode="normal" in="SourceGraphic" in2="effect1_dropShadow_2_852" result="shape"/>
</filter>
<filter id="filter7_d_2_852" x="273" y="99" width="28.7144" height="28" filterUnits="userSpaceOnUse" color-interpolation-filters="sRGB">
<feFlood flood-opacity="0" result="BackgroundImageFix"/>
<feColorMatrix in="SourceAlpha" type="matrix" values="0 0 0 0 0 0 0 0 0 0 0 0 0 0 0 0 0 0 127 0" result="hardAlpha"/>
<feOffset dy="4"/>
<feGaussianBlur stdDeviation="2"/>
<feComposite in2="hardAlpha" operator="out"/>
<feColorMatrix type="matrix" values="0 0 0 0 0 0 0 0 0 0 0 0 0 0 0 0 0 0 0.2 0"/>
<feBlend mode="normal" in2="BackgroundImageFix" result="effect1_dropShadow_2_852"/>
<feBlend mode="normal" in="SourceGraphic" in2="effect1_dropShadow_2_852" result="shape"/>
</filter>
<filter id="filter8_d_2_852" x="296" y="99" width="28.7144" height="28" filterUnits="userSpaceOnUse" color-interpolation-filters="sRGB">
<feFlood flood-opacity="0" result="BackgroundImageFix"/>
<feColorMatrix in="SourceAlpha" type="matrix" values="0 0 0 0 0 0 0 0 0 0 0 0 0 0 0 0 0 0 127 0" result="hardAlpha"/>
<feOffset dy="4"/>
<feGaussianBlur stdDeviation="2"/>
<feComposite in2="hardAlpha" operator="out"/>
<feColorMatrix type="matrix" values="0 0 0 0 0 0 0 0 0 0 0 0 0 0 0 0 0 0 0.2 0"/>
<feBlend mode="normal" in2="BackgroundImageFix" result="effect1_dropShadow_2_852"/>
<feBlend mode="normal" in="SourceGraphic" in2="effect1_dropShadow_2_852" result="shape"/>
</filter>
<filter id="filter9_d_2_852" x="250" y="139" width="28.7144" height="28" filterUnits="userSpaceOnUse" color-interpolation-filters="sRGB">
<feFlood flood-opacity="0" result="BackgroundImageFix"/>
<feColorMatrix in="SourceAlpha" type="matrix" values="0 0 0 0 0 0 0 0 0 0 0 0 0 0 0 0 0 0 127 0" result="hardAlpha"/>
<feOffset dy="4"/>
<feGaussianBlur stdDeviation="2"/>
<feComposite in2="hardAlpha" operator="out"/>
<feColorMatrix type="matrix" values="0 0 0 0 0 0 0 0 0 0 0 0 0 0 0 0 0 0 0.2 0"/>
<feBlend mode="normal" in2="BackgroundImageFix" result="effect1_dropShadow_2_852"/>
<feBlend mode="normal" in="SourceGraphic" in2="effect1_dropShadow_2_852" result="shape"/>
</filter>
<filter id="filter10_d_2_852" x="273" y="139" width="28.7144" height="28" filterUnits="userSpaceOnUse" color-interpolation-filters="sRGB">
<feFlood flood-opacity="0" result="BackgroundImageFix"/>
<feColorMatrix in="SourceAlpha" type="matrix" values="0 0 0 0 0 0 0 0 0 0 0 0 0 0 0 0 0 0 127 0" result="hardAlpha"/>
<feOffset dy="4"/>
<feGaussianBlur stdDeviation="2"/>
<feComposite in2="hardAlpha" operator="out"/>
<feColorMatrix type="matrix" values="0 0 0 0 0 0 0 0 0 0 0 0 0 0 0 0 0 0 0.2 0"/>
<feBlend mode="normal" in2="BackgroundImageFix" result="effect1_dropShadow_2_852"/>
<feBlend mode="normal" in="SourceGraphic" in2="effect1_dropShadow_2_852" result="shape"/>
</filter>
<filter id="filter11_d_2_852" x="296" y="139" width="28.7144" height="28" filterUnits="userSpaceOnUse" color-interpolation-filters="sRGB">
<feFlood flood-opacity="0" result="BackgroundImageFix"/>
<feColorMatrix in="SourceAlpha" type="matrix" values="0 0 0 0 0 0 0 0 0 0 0 0 0 0 0 0 0 0 127 0" result="hardAlpha"/>
<feOffset dy="4"/>
<feGaussianBlur stdDeviation="2"/>
<feComposite in2="hardAlpha" operator="out"/>
<feColorMatrix type="matrix" values="0 0 0 0 0 0 0 0 0 0 0 0 0 0 0 0 0 0 0.2 0"/>
<feBlend mode="normal" in2="BackgroundImageFix" result="effect1_dropShadow_2_852"/>
<feBlend mode="normal" in="SourceGraphic" in2="effect1_dropShadow_2_852" result="shape"/>
</filter>
<filter id="filter12_d_2_852" x="250" y="179" width="28.7144" height="28" filterUnits="userSpaceOnUse" color-interpolation-filters="sRGB">
<feFlood flood-opacity="0" result="BackgroundImageFix"/>
<feColorMatrix in="SourceAlpha" type="matrix" values="0 0 0 0 0 0 0 0 0 0 0 0 0 0 0 0 0 0 127 0" result="hardAlpha"/>
<feOffset dy="4"/>
<feGaussianBlur stdDeviation="2"/>
<feComposite in2="hardAlpha" operator="out"/>
<feColorMatrix type="matrix" values="0 0 0 0 0 0 0 0 0 0 0 0 0 0 0 0 0 0 0.2 0"/>
<feBlend mode="normal" in2="BackgroundImageFix" result="effect1_dropShadow_2_852"/>
<feBlend mode="normal" in="SourceGraphic" in2="effect1_dropShadow_2_852" result="shape"/>
</filter>
<filter id="filter13_d_2_852" x="273" y="179" width="28.7144" height="28" filterUnits="userSpaceOnUse" color-interpolation-filters="sRGB">
<feFlood flood-opacity="0" result="BackgroundImageFix"/>
<feColorMatrix in="SourceAlpha" type="matrix" values="0 0 0 0 0 0 0 0 0 0 0 0 0 0 0 0 0 0 127 0" result="hardAlpha"/>
<feOffset dy="4"/>
<feGaussianBlur stdDeviation="2"/>
<feComposite in2="hardAlpha" operator="out"/>
<feColorMatrix type="matrix" values="0 0 0 0 0 0 0 0 0 0 0 0 0 0 0 0 0 0 0.2 0"/>
<feBlend mode="normal" in2="BackgroundImageFix" result="effect1_dropShadow_2_852"/>
<feBlend mode="normal" in="SourceGraphic" in2="effect1_dropShadow_2_852" result="shape"/>
</filter>
<filter id="filter14_d_2_852" x="296" y="179" width="28.7144" height="28" filterUnits="userSpaceOnUse" color-interpolation-filters="sRGB">
<feFlood flood-opacity="0" result="BackgroundImageFix"/>
<feColorMatrix in="SourceAlpha" type="matrix" values="0 0 0 0 0 0 0 0 0 0 0 0 0 0 0 0 0 0 127 0" result="hardAlpha"/>
<feOffset dy="4"/>
<feGaussianBlur stdDeviation="2"/>
<feComposite in2="hardAlpha" operator="out"/>
<feColorMatrix type="matrix" values="0 0 0 0 0 0 0 0 0 0 0 0 0 0 0 0 0 0 0.2 0"/>
<feBlend mode="normal" in2="BackgroundImageFix" result="effect1_dropShadow_2_852"/>
<feBlend mode="normal" in="SourceGraphic" in2="effect1_dropShadow_2_852" result="shape"/>
</filter>
<filter id="filter15_d_2_852" x="250" y="179" width="28.7144" height="28" filterUnits="userSpaceOnUse" color-interpolation-filters="sRGB">
<feFlood flood-opacity="0" result="BackgroundImageFix"/>
<feColorMatrix in="SourceAlpha" type="matrix" values="0 0 0 0 0 0 0 0 0 0 0 0 0 0 0 0 0 0 127 0" result="hardAlpha"/>
<feOffset dy="4"/>
<feGaussianBlur stdDeviation="2"/>
<feComposite in2="hardAlpha" operator="out"/>
<feColorMatrix type="matrix" values="0 0 0 0 0 0 0 0 0 0 0 0 0 0 0 0 0 0 0.2 0"/>
<feBlend mode="normal" in2="BackgroundImageFix" result="effect1_dropShadow_2_852"/>
<feBlend mode="normal" in="SourceGraphic" in2="effect1_dropShadow_2_852" result="shape"/>
</filter>
<filter id="filter16_d_2_852" x="273" y="179" width="28.7144" height="28" filterUnits="userSpaceOnUse" color-interpolation-filters="sRGB">
<feFlood flood-opacity="0" result="BackgroundImageFix"/>
<feColorMatrix in="SourceAlpha" type="matrix" values="0 0 0 0 0 0 0 0 0 0 0 0 0 0 0 0 0 0 127 0" result="hardAlpha"/>
<feOffset dy="4"/>
<feGaussianBlur stdDeviation="2"/>
<feComposite in2="hardAlpha" operator="out"/>
<feColorMatrix type="matrix" values="0 0 0 0 0 0 0 0 0 0 0 0 0 0 0 0 0 0 0.2 0"/>
<feBlend mode="normal" in2="BackgroundImageFix" result="effect1_dropShadow_2_852"/>
<feBlend mode="normal" in="SourceGraphic" in2="effect1_dropShadow_2_852" result="shape"/>
</filter>
<filter id="filter17_d_2_852" x="250" y="219" width="28.7144" height="28" filterUnits="userSpaceOnUse" color-interpolation-filters="sRGB">
<feFlood flood-opacity="0" result="BackgroundImageFix"/>
<feColorMatrix in="SourceAlpha" type="matrix" values="0 0 0 0 0 0 0 0 0 0 0 0 0 0 0 0 0 0 127 0" result="hardAlpha"/>
<feOffset dy="4"/>
<feGaussianBlur stdDeviation="2"/>
<feComposite in2="hardAlpha" operator="out"/>
<feColorMatrix type="matrix" values="0 0 0 0 0 0 0 0 0 0 0 0 0 0 0 0 0 0 0.2 0"/>
<feBlend mode="normal" in2="BackgroundImageFix" result="effect1_dropShadow_2_852"/>
<feBlend mode="normal" in="SourceGraphic" in2="effect1_dropShadow_2_852" result="shape"/>
</filter>
<filter id="filter18_d_2_852" x="273" y="219" width="28.7144" height="28" filterUnits="userSpaceOnUse" color-interpolation-filters="sRGB">
<feFlood flood-opacity="0" result="BackgroundImageFix"/>
<feColorMatrix in="SourceAlpha" type="matrix" values="0 0 0 0 0 0 0 0 0 0 0 0 0 0 0 0 0 0 127 0" result="hardAlpha"/>
<feOffset dy="4"/>
<feGaussianBlur stdDeviation="2"/>
<feComposite in2="hardAlpha" operator="out"/>
<feColorMatrix type="matrix" values="0 0 0 0 0 0 0 0 0 0 0 0 0 0 0 0 0 0 0.2 0"/>
<feBlend mode="normal" in2="BackgroundImageFix" result="effect1_dropShadow_2_852"/>
<feBlend mode="normal" in="SourceGraphic" in2="effect1_dropShadow_2_852" result="shape"/>
</filter>
<filter id="filter19_d_2_852" x="296" y="219" width="28.7144" height="28" filterUnits="userSpaceOnUse" color-interpolation-filters="sRGB">
<feFlood flood-opacity="0" result="BackgroundImageFix"/>
<feColorMatrix in="SourceAlpha" type="matrix" values="0 0 0 0 0 0 0 0 0 0 0 0 0 0 0 0 0 0 127 0" result="hardAlpha"/>
<feOffset dy="4"/>
<feGaussianBlur stdDeviation="2"/>
<feComposite in2="hardAlpha" operator="out"/>
<feColorMatrix type="matrix" values="0 0 0 0 0 0 0 0 0 0 0 0 0 0 0 0 0 0 0.2 0"/>
<feBlend mode="normal" in2="BackgroundImageFix" result="effect1_dropShadow_2_852"/>
<feBlend mode="normal" in="SourceGraphic" in2="effect1_dropShadow_2_852" result="shape"/>
</filter>
<filter id="filter20_d_2_852" x="250" y="219" width="28.7144" height="28" filterUnits="userSpaceOnUse" color-interpolation-filters="sRGB">
<feFlood flood-opacity="0" result="BackgroundImageFix"/>
<feColorMatrix in="SourceAlpha" type="matrix" values="0 0 0 0 0 0 0 0 0 0 0 0 0 0 0 0 0 0 127 0" result="hardAlpha"/>
<feOffset dy="4"/>
<feGaussianBlur stdDeviation="2"/>
<feComposite in2="hardAlpha" operator="out"/>
<feColorMatrix type="matrix" values="0 0 0 0 0 0 0 0 0 0 0 0 0 0 0 0 0 0 0.2 0"/>
<feBlend mode="normal" in2="BackgroundImageFix" result="effect1_dropShadow_2_852"/>
<feBlend mode="normal" in="SourceGraphic" in2="effect1_dropShadow_2_852" result="shape"/>
</filter>
<clipPath id="clip0_2_852">
<rect width="67" height="140" fill="white" transform="translate(254 99)"/>
</clipPath>
</defs>
</svg>
